{"glyphs":{"0":{"ha":679,"x_min":22,"x_max":660,"o":"m 332 50 q 213 76 265 47 q 128 149 160 104 q 74 257 96 194 q 42 374 51 319 q 29 485 33 428 q 39 705 22 610 q 118 876 56 800 q 242 958 167 936 q 393 965 317 981 q 532 903 469 950 q 607 801 576 869 q 650 497 658 679 q 572 182 640 285 q 509 109 540 136 q 435 67 478 82 q 332 50 392 51 m 335 768 q 268 688 285 794 q 274 353 249 560 q 275 333 275 340 q 294 265 282 288 q 339 235 313 229 q 381 296 365 240 q 400 549 413 414 q 335 768 382 742 z "},"1":{"ha":486,"x_min":68,"x_max":458,"o":"m 147 100 q 151 144 143 115 q 207 665 213 401 q 193 704 206 694 q 144 713 179 715 q 93 722 108 711 q 78 761 81 731 q 75 786 78 764 q 71 824 72 808 q 69 866 69 840 q 72 909 69 892 q 80 942 74 926 q 96 965 86 958 q 117 974 106 969 q 142 982 128 979 q 164 987 156 985 q 189 992 172 989 q 211 996 206 994 q 386 997 340 1021 q 415 974 407 989 q 422 946 422 960 q 423 659 417 794 q 441 383 429 524 q 457 183 453 242 q 447 107 458 150 q 428 72 440 83 q 376 61 413 61 q 308 60 354 61 q 240 60 263 60 q 186 65 204 60 q 147 100 156 75 z "},"2":{"ha":751,"x_min":18,"x_max":735,"o":"m 69 15 q 37 30 49 15 q 22 71 25 44 q 20 126 19 97 q 27 191 21 156 q 39 251 33 226 q 51 301 44 276 q 103 353 58 331 q 215 427 168 394 q 315 507 261 460 q 406 603 368 554 q 432 685 443 651 q 414 707 428 701 q 389 703 400 713 q 365 672 378 693 q 303 588 326 614 q 258 563 281 563 q 65 632 174 561 q 60 669 54 636 q 76 742 65 703 q 111 824 88 782 q 160 889 135 867 q 270 960 214 938 q 377 980 326 982 q 485 968 428 978 q 638 879 581 947 q 688 775 675 833 q 644 569 706 675 q 506 408 603 497 q 324 260 418 329 q 315 251 317 256 q 322 240 314 243 q 342 236 331 236 q 593 306 472 254 q 661 322 626 319 q 688 317 679 322 q 708 281 701 308 q 728 75 733 171 q 713 40 726 54 q 678 24 699 26 q 509 12 599 14 q 265 12 419 10 q 69 15 111 14 z "},"3":{"ha":900,"x_min":61,"x_max":836,"o":"m 582 576 q 690 519 639 561 q 773 424 740 478 q 820 310 806 371 q 828 193 835 249 q 784 91 821 138 q 683 22 747 44 q 500 -6 608 -6 q 289 28 375 -7 q 197 78 239 47 q 120 144 149 115 q 74 214 92 174 q 81 251 61 235 q 268 396 163 336 q 290 407 282 404 q 308 410 297 410 q 328 400 318 410 q 349 371 339 390 q 407 287 372 325 q 479 239 442 249 q 543 236 517 228 q 571 253 560 242 q 583 279 582 265 q 581 318 586 293 q 567 354 575 343 q 390 488 503 450 q 369 500 374 493 q 354 550 363 511 q 357 611 346 589 q 383 626 363 618 q 485 697 443 651 q 515 764 518 733 q 499 798 515 783 q 465 810 483 813 q 426 779 447 806 q 392 738 414 765 q 358 696 369 710 q 343 683 350 685 q 322 688 335 682 q 281 712 303 697 q 232 747 258 726 q 192 790 206 767 q 189 829 179 813 q 338 974 239 931 q 544 1008 428 1019 q 633 982 600 1003 q 711 831 704 939 q 680 704 715 765 q 582 576 644 643 z "},"4":{"ha":782,"x_min":64,"x_max":753,"o":"m 728 -3 q 704 -14 721 -10 q 601 -26 668 -24 q 519 -31 533 -29 q 488 -24 503 -32 q 468 -1 474 -17 q 465 51 461 15 q 476 165 468 85 q 486 278 483 244 q 483 297 488 292 q 464 304 479 303 q 295 308 429 311 q 125 307 161 306 q 90 321 104 307 q 71 357 75 335 q 85 457 65 389 q 138 628 106 525 q 183 819 169 732 q 225 869 190 864 q 260 868 239 871 q 374 842 318 861 q 424 811 411 829 q 424 714 446 781 q 403 651 417 692 q 384 592 390 610 q 366 542 378 574 q 339 476 354 511 q 340 446 329 454 q 358 442 342 446 q 400 434 374 439 q 449 426 426 429 q 470 433 461 425 q 483 456 479 440 q 488 488 486 471 q 490 530 490 506 q 488 573 489 554 q 484 617 486 592 q 482 654 482 642 q 453 906 456 810 q 471 949 451 936 q 494 956 478 954 q 722 953 643 975 q 747 894 743 947 q 747 764 751 840 q 746 661 743 688 q 735 381 743 613 q 735 203 733 322 q 735 26 736 85 q 728 -3 735 6 z "},"5":{"ha":738,"x_min":32,"x_max":713,"o":"m 461 643 q 578 585 525 626 q 660 488 632 544 q 699 388 686 440 q 710 283 713 336 q 688 185 707 231 q 628 101 669 139 q 526 44 586 64 q 301 13 432 15 q 74 36 171 11 q 43 51 50 42 q 36 83 36 61 q 35 212 36 126 q 35 340 35 297 q 49 385 33 375 q 74 393 57 392 q 219 370 126 394 q 403 310 311 346 q 468 305 442 293 q 495 344 494 317 q 476 406 496 372 q 408 466 444 450 q 299 494 371 482 q 202 497 260 500 q 103 485 144 493 q 51 490 68 476 q 39 535 35 504 l 33 953 q 33 972 33 967 q 35 983 33 978 q 36 988 36 988 q 40 990 36 988 q 46 994 43 992 q 76 1001 57 1003 q 140 999 108 1000 q 199 997 172 997 q 258 996 225 996 q 312 997 290 996 q 367 999 333 997 q 419 1001 401 1000 q 473 1004 438 1001 q 524 1008 508 1007 q 578 1011 539 1008 q 631 1015 617 1014 q 658 1010 650 1017 q 671 981 667 1003 q 687 888 676 946 q 703 794 697 831 q 688 738 710 749 q 664 735 679 735 q 501 751 608 736 q 339 768 393 767 q 264 770 315 771 q 203 758 213 769 q 198 715 196 744 q 206 657 200 686 q 214 628 211 628 q 461 643 339 675 z "},"6":{"ha":742,"x_min":18,"x_max":721,"o":"m 317 24 q 160 71 231 24 q 58 197 89 118 q 24 375 29 275 q 40 573 19 475 q 101 758 61 671 q 206 903 142 844 q 347 975 271 963 q 444 980 394 982 q 540 960 493 978 q 622 916 586 942 q 676 848 657 890 q 690 756 696 806 q 678 727 689 739 q 651 713 667 715 q 508 669 599 700 q 473 670 490 664 q 446 693 456 676 q 403 736 422 732 q 367 733 382 739 q 333 708 350 726 q 308 672 315 690 q 302 656 304 663 q 298 641 300 649 q 294 630 296 633 q 292 619 293 626 q 290 609 290 611 q 290 598 290 607 q 289 586 289 589 q 288 571 289 583 q 288 553 288 558 q 360 585 328 576 q 449 592 393 593 q 618 539 535 592 q 683 471 657 514 q 719 349 717 417 q 692 222 721 281 q 616 122 665 165 q 504 54 567 78 q 317 24 428 24 m 308 426 q 272 311 274 400 q 288 240 272 267 q 315 215 297 224 q 349 211 332 207 q 389 243 372 217 q 408 315 408 275 q 392 388 408 354 q 356 426 379 413 q 308 426 333 440 z "},"7":{"ha":797,"x_min":68,"x_max":728,"o":"m 450 686 q 453 708 457 699 q 448 724 450 717 q 436 735 446 731 q 420 741 426 739 q 402 744 414 743 q 384 744 390 744 q 368 744 378 744 q 357 744 358 744 q 244 726 322 744 q 143 704 165 707 q 69 756 69 692 q 70 844 71 771 q 78 940 69 918 q 100 974 83 961 q 139 988 117 988 l 172 988 q 649 979 479 997 q 699 908 669 976 q 728 808 728 840 q 711 732 728 776 q 666 581 696 694 q 628 426 636 467 q 619 376 624 404 q 608 321 614 349 q 599 272 603 293 q 578 93 575 154 q 575 57 578 68 q 533 18 567 31 q 475 13 513 11 q 347 24 411 14 q 321 33 331 29 q 299 45 311 36 q 281 65 286 54 q 277 95 276 76 q 286 139 278 114 q 343 306 315 215 q 389 464 371 397 q 425 596 407 531 q 450 686 443 661 z "},"8":{"ha":725,"x_min":4,"x_max":715,"o":"m 315 -42 q 90 29 168 -47 q 49 84 65 53 q 25 151 33 115 q 26 321 4 235 q 94 460 44 394 q 165 522 110 482 q 174 558 185 536 q 113 703 117 661 q 115 765 108 736 q 130 811 121 794 q 157 857 139 828 q 244 929 183 900 q 360 957 306 958 q 474 940 421 957 q 569 889 528 924 q 626 801 611 854 q 625 676 642 747 q 583 546 601 583 q 590 511 575 526 q 644 449 621 482 q 688 368 674 408 q 701 203 715 296 q 632 57 686 111 q 315 -42 543 -33 m 321 747 q 310 683 306 718 q 338 625 315 649 q 372 611 356 607 q 390 626 382 614 q 407 746 425 674 q 368 787 396 789 q 321 747 340 785 m 268 364 q 293 239 253 296 q 322 214 307 219 q 376 218 346 203 q 424 270 408 233 q 433 344 440 307 q 402 413 426 376 q 350 457 378 450 q 300 430 324 464 q 268 364 276 396 z "},"9":{"ha":754,"x_min":21,"x_max":735,"o":"m 503 949 q 637 845 582 926 q 713 658 692 764 q 725 434 733 553 q 679 215 717 315 q 567 44 642 114 q 394 -31 493 -25 q 273 -26 333 -36 q 160 8 213 -15 q 76 78 107 32 q 51 188 46 125 q 65 217 54 204 q 92 232 76 229 q 235 275 144 244 q 258 278 247 279 q 280 269 269 276 q 296 251 290 263 q 340 208 319 213 q 376 211 361 206 q 410 236 393 218 q 435 272 428 254 q 440 289 438 282 q 445 303 443 296 q 449 315 447 311 q 451 326 450 318 q 452 335 451 333 q 453 347 453 338 q 454 358 454 356 q 454 374 454 361 q 456 392 454 386 q 383 360 415 368 q 293 353 350 351 q 125 406 207 353 q 58 474 85 431 q 24 609 25 528 q 50 747 22 690 q 131 858 78 807 q 243 933 183 910 q 358 963 308 958 q 503 949 408 967 m 410 536 q 431 664 436 567 q 411 742 426 714 q 401 757 407 750 q 387 768 394 764 q 372 773 379 772 q 356 771 364 774 q 325 732 338 764 q 314 652 311 694 q 333 572 317 610 q 354 544 342 557 q 381 526 367 531 q 410 536 396 521 z "},"\u0000":{"ha":0,"x_min":0,"x_max":0,"o":""},"\n":{"ha":0,"x_min":0,"x_max":0,"o":""},"\r":{"ha":0,"x_min":0,"x_max":0,"o":""}," ":{"ha":410,"x_min":0,"x_max":0,"o":""},"!":{"ha":300,"x_min":18,"x_max":269,"o":"m 181 304 q 152 302 171 304 q 126 300 133 300 q 106 302 118 300 q 87 310 93 304 q 74 326 81 315 q 63 354 67 338 q 56 526 53 397 q 52 608 56 565 q 42 706 49 651 q 35 792 36 761 q 53 993 19 978 q 168 1004 86 1010 q 184 1003 171 1004 q 201 1002 197 1003 q 214 1000 204 1001 q 228 997 224 999 q 239 990 232 994 q 251 981 246 986 q 260 968 256 976 q 264 944 264 953 q 260 917 264 936 q 257 890 257 897 q 248 731 250 792 q 249 579 246 671 q 263 399 251 488 q 256 353 265 374 q 227 319 247 332 q 181 304 207 306 m 163 265 q 235 224 204 257 q 269 142 267 190 q 240 50 267 85 q 181 12 214 15 q 115 31 147 8 q 71 97 83 53 q 77 222 51 168 q 163 265 103 276 z "},"\"":{"ha":528,"x_min":8,"x_max":504,"o":"m 136 992 q 243 889 218 978 q 250 819 250 860 q 242 735 250 778 q 211 657 233 692 q 156 613 189 622 q 106 622 128 603 q 94 668 85 642 q 118 693 101 685 q 174 761 160 724 q 90 756 136 735 q 29 832 44 776 q 42 952 10 901 q 136 992 75 1003 m 494 889 q 503 819 503 860 q 494 735 503 778 q 464 657 486 692 q 408 613 442 622 q 359 622 381 603 q 347 668 338 642 q 371 693 353 685 q 426 761 413 724 q 343 756 389 735 q 281 832 297 776 q 294 952 263 901 q 388 992 326 1003 q 494 889 469 978 z "},"#":{"ha":725,"x_min":21,"x_max":701,"o":"m 669 489 q 700 417 700 479 q 689 358 701 375 q 643 339 674 339 q 614 343 632 339 q 629 156 626 192 q 622 85 633 108 q 579 46 611 61 q 454 25 518 15 q 406 49 421 29 q 390 93 396 64 q 388 181 383 133 q 399 350 394 289 q 364 350 396 350 q 322 349 332 350 q 340 156 338 203 q 333 85 344 108 q 286 46 321 61 q 230 25 251 29 q 176 25 208 21 q 124 49 139 29 q 107 93 113 64 q 103 179 100 133 q 115 339 111 294 q 111 339 114 339 q 106 338 108 339 q 92 337 100 338 q 78 335 83 336 q 65 335 72 335 q 52 336 57 335 q 42 341 47 338 q 34 351 38 344 q 28 366 31 357 q 23 388 25 375 q 24 424 21 401 q 31 456 26 450 q 69 472 39 469 q 99 474 79 474 q 122 475 118 475 q 122 561 124 522 q 115 561 121 561 q 106 561 110 561 q 84 558 101 560 q 61 557 67 556 q 45 562 56 558 q 30 578 35 565 q 22 611 25 590 q 24 646 21 624 q 31 678 26 672 q 69 694 39 692 q 96 697 79 696 q 118 697 113 697 q 113 757 117 721 q 107 824 108 793 q 103 902 101 851 q 119 963 106 953 q 176 982 147 982 q 297 958 279 985 q 306 804 314 932 q 304 790 304 796 q 301 707 301 743 q 354 709 315 708 q 400 710 393 710 q 397 746 399 728 q 393 782 394 764 q 390 824 392 800 q 389 925 383 878 q 426 971 393 963 q 506 975 465 979 q 575 941 546 971 q 603 864 604 911 q 603 846 604 856 q 600 828 601 836 q 597 809 599 819 q 596 790 596 799 q 594 713 593 749 q 612 713 601 713 q 633 713 622 713 q 651 714 643 713 q 669 711 664 714 q 700 639 700 701 q 689 581 701 597 q 643 561 674 561 q 597 569 635 561 q 603 490 600 533 q 651 490 619 490 q 669 489 664 492 m 404 488 q 406 568 406 531 q 406 570 406 568 q 406 572 406 572 q 304 571 315 571 q 310 485 307 532 q 361 487 324 486 q 404 488 399 488 z "},"$":{"ha":697,"x_min":13,"x_max":682,"o":"m 426 535 q 476 504 461 514 q 524 473 492 494 q 572 438 557 451 q 612 402 588 425 q 647 360 636 379 q 669 315 657 342 q 681 264 681 289 q 675 208 681 239 q 654 143 669 176 q 571 58 629 89 q 440 13 513 26 q 444 -64 443 -60 q 439 -89 444 -82 q 406 -101 432 -100 q 382 -103 397 -101 q 358 -104 367 -104 q 276 -83 297 -108 q 263 -51 267 -72 q 258 -1 258 -31 q 154 7 197 0 q 46 56 78 18 q 25 165 14 93 q 72 328 38 242 q 175 392 100 396 q 191 390 183 392 q 205 385 199 388 q 219 378 211 383 q 231 371 226 374 q 243 360 235 368 q 254 349 251 351 q 266 336 257 346 q 277 324 275 326 q 288 310 279 321 q 300 296 297 299 q 438 213 356 226 q 468 218 461 207 q 467 246 475 229 q 203 479 435 326 q 65 604 113 532 q 46 769 18 676 q 85 840 58 807 q 261 950 146 918 q 259 973 260 956 q 258 1000 258 990 q 264 1025 258 1018 q 281 1035 269 1032 q 299 1040 292 1039 q 324 1040 307 1040 q 344 1040 340 1040 q 392 1040 365 1043 q 426 1019 419 1038 q 427 1005 428 1010 q 425 988 426 1000 q 422 971 424 976 q 492 964 476 968 q 596 901 560 947 q 631 803 626 863 q 618 699 636 744 q 588 647 607 668 q 528 619 564 622 q 465 624 492 615 q 418 647 439 633 q 348 719 388 667 q 285 790 308 772 q 256 796 271 800 q 231 776 240 792 q 221 737 219 757 q 239 692 222 717 q 276 647 256 668 q 324 604 296 626 q 377 565 353 582 q 426 535 401 549 z "},"%":{"ha":1375,"x_min":64,"x_max":1308,"o":"m 985 849 q 943 764 969 810 q 856 599 899 688 q 788 442 814 510 q 717 259 761 375 q 643 72 672 143 q 515 19 614 -1 q 406 79 443 35 q 394 124 383 106 q 562 506 446 269 q 808 972 678 742 q 853 990 821 993 q 919 971 886 986 q 971 940 951 956 q 989 917 985 924 q 994 893 993 911 q 985 849 994 875 m 574 578 q 488 478 543 517 q 369 432 433 439 q 208 456 283 425 q 101 561 133 488 q 70 722 65 635 q 119 879 75 810 q 233 983 160 942 q 372 1011 307 1024 q 435 988 403 1004 q 493 949 467 972 q 542 898 519 926 q 578 839 564 869 q 605 708 606 778 q 574 578 604 638 m 401 749 q 360 853 413 846 q 276 786 293 860 q 292 672 263 722 q 364 665 322 621 q 371 674 368 668 q 401 749 396 704 m 1279 408 q 1306 277 1307 347 q 1275 147 1306 207 q 1190 47 1244 86 q 1071 1 1135 8 q 965 8 1015 -3 q 869 49 914 18 q 803 131 825 81 q 772 292 767 204 q 821 449 776 379 q 935 552 861 511 q 1074 581 1008 593 q 1194 519 1136 568 q 1279 408 1251 469 m 1103 318 q 1061 422 1114 415 q 978 356 994 429 q 993 242 964 292 q 1065 235 1024 190 q 1072 242 1069 238 q 1103 318 1097 274 z "},"&":{"ha":883,"x_min":68,"x_max":817,"o":"m 814 368 q 736 232 811 308 q 710 206 728 224 q 764 119 753 142 q 760 63 779 89 q 706 23 740 36 q 634 2 671 10 q 578 4 597 -6 q 539 79 565 11 q 421 38 493 57 q 269 33 360 19 q 142 86 179 46 q 69 271 69 165 q 128 422 69 357 q 174 469 149 446 q 235 524 200 493 q 286 567 271 554 q 253 653 267 607 q 244 767 240 703 q 278 892 249 831 q 338 953 297 932 q 422 972 378 974 q 512 953 467 969 q 587 904 557 938 q 627 830 617 871 q 614 735 638 789 q 508 563 571 626 q 482 539 497 553 q 529 457 492 525 q 583 367 567 389 q 615 460 597 388 q 642 556 632 533 q 669 570 650 574 q 708 555 689 567 q 739 529 726 543 q 776 480 763 499 q 803 429 790 461 q 814 368 815 397 m 393 233 q 451 265 421 246 q 369 428 400 372 q 339 396 351 410 q 288 310 294 347 q 292 258 282 283 q 325 224 303 233 q 393 233 351 214 m 436 754 q 447 786 443 769 q 453 821 451 803 q 449 853 454 839 q 433 874 444 867 q 392 853 406 883 q 375 785 378 824 q 397 675 372 743 q 436 754 421 714 z "},"'":{"ha":275,"x_min":8,"x_max":251,"o":"m 243 889 q 250 819 250 860 q 242 735 250 778 q 211 657 233 692 q 156 613 189 622 q 106 622 128 603 q 94 668 85 642 q 118 693 101 685 q 174 761 160 724 q 90 756 136 735 q 29 832 44 776 q 42 952 10 901 q 136 992 75 1003 q 243 889 218 978 z "},"(":{"ha":479,"x_min":24,"x_max":425,"o":"m 406 925 q 390 898 400 910 q 363 868 381 886 q 336 842 344 850 q 255 664 281 781 q 235 481 229 547 q 237 448 235 475 q 239 417 239 421 q 241 391 239 413 q 244 364 243 369 q 249 341 246 358 q 256 316 253 324 q 265 293 260 308 q 276 267 269 278 q 290 243 282 257 q 307 214 297 229 q 331 186 315 201 q 364 156 347 171 q 388 132 381 140 q 394 57 417 96 q 356 13 382 35 q 303 -22 331 -8 q 236 -26 269 -37 q 119 92 167 19 q 52 246 72 165 q 28 420 32 326 q 33 596 24 514 q 60 758 42 678 q 133 935 96 871 q 238 1054 169 999 q 302 1061 261 1069 q 367 1029 343 1053 q 406 925 424 972 z "},")":{"ha":479,"x_min":54,"x_max":456,"o":"m 243 1058 q 360 941 313 1014 q 427 788 407 868 q 451 613 447 707 q 447 438 456 519 q 418 275 438 356 q 347 98 383 161 q 242 -21 310 35 q 177 -28 218 -36 q 113 3 136 -19 q 74 108 54 61 q 86 131 78 119 q 101 150 94 142 q 122 171 108 158 q 143 192 135 183 q 224 369 199 253 q 244 553 250 486 q 242 585 244 558 q 240 616 240 611 q 237 642 239 621 q 233 669 235 664 q 229 692 232 674 q 223 717 226 710 q 215 740 219 725 q 203 766 210 756 q 190 790 197 776 q 172 818 182 804 q 147 847 164 832 q 115 877 131 863 q 90 901 99 892 q 85 976 63 938 q 123 1020 97 999 q 175 1054 149 1042 q 243 1058 210 1071 z "},"*":{"ha":424,"x_min":17,"x_max":404,"o":"m 401 860 q 399 829 404 839 q 360 811 389 810 q 348 813 356 811 q 335 815 340 814 q 322 818 329 817 q 310 819 315 819 q 303 815 306 818 q 300 807 300 813 q 304 792 300 801 q 332 736 313 768 q 356 697 351 704 q 360 650 371 671 q 311 632 350 629 q 253 638 257 635 q 237 660 242 644 q 231 703 232 675 q 228 742 229 731 q 220 767 226 750 q 211 790 214 785 q 178 644 183 668 q 147 632 175 635 q 90 638 119 629 q 53 665 60 646 q 68 714 47 682 q 110 782 90 747 q 121 810 124 807 q 92 808 119 813 q 61 804 86 807 q 26 831 35 801 q 26 891 18 861 q 47 918 33 921 q 149 899 69 917 q 165 913 164 896 q 162 951 167 929 q 162 992 157 974 q 189 1013 167 1011 q 244 1011 236 1013 q 267 990 264 1007 q 267 945 271 972 q 265 908 264 918 q 276 897 267 901 q 291 898 282 894 q 339 914 300 901 q 365 919 356 919 q 389 911 381 921 q 397 892 394 906 q 401 860 400 875 z "},"+":{"ha":533,"x_min":19,"x_max":515,"o":"m 503 631 q 512 574 508 621 q 510 508 515 528 q 493 478 504 486 q 446 465 479 465 q 354 469 400 464 q 352 469 353 469 q 351 469 351 469 q 351 467 351 468 q 351 461 351 463 q 353 379 356 431 q 332 329 351 340 q 277 320 324 324 q 211 321 231 317 q 181 338 189 326 q 168 385 168 353 q 171 469 167 426 q 61 471 97 465 q 22 500 25 476 q 21 530 21 511 q 23 568 21 549 q 28 606 25 588 q 33 636 31 625 q 53 663 39 657 q 72 664 58 664 q 172 654 94 663 q 173 769 168 732 q 203 810 178 806 q 271 808 225 813 q 338 798 317 804 q 364 779 360 792 q 367 758 367 772 q 356 647 365 746 q 369 649 364 649 q 451 650 400 653 q 503 631 490 649 z "},",":{"ha":275,"x_min":8,"x_max":251,"o":"m 243 175 q 250 105 250 146 q 242 21 250 64 q 211 -57 233 -22 q 156 -101 189 -92 q 106 -92 128 -111 q 94 -46 85 -72 q 118 -21 101 -29 q 174 47 160 10 q 90 42 136 21 q 29 118 44 63 q 42 238 10 188 q 136 278 75 289 q 243 175 218 264 z "},"-":{"ha":538,"x_min":19,"x_max":517,"o":"m 504 631 q 513 574 510 621 q 511 508 517 528 q 494 478 506 486 q 447 465 481 465 q 356 469 401 464 q 267 472 311 474 q 179 469 222 471 q 103 467 136 468 q 47 475 69 467 q 24 500 25 483 q 25 568 21 522 q 35 635 29 614 q 54 663 40 657 q 74 664 60 664 q 147 656 99 661 q 223 649 194 651 q 299 645 251 647 q 371 649 346 643 q 453 650 401 653 q 504 631 492 649 z "},".":{"ha":251,"x_min":10,"x_max":229,"o":"m 122 286 q 195 245 164 279 q 228 164 226 211 q 199 72 226 106 q 140 33 172 38 q 75 52 107 29 q 31 118 43 75 q 37 243 11 189 q 122 286 63 297 z "},"/":{"ha":717,"x_min":61,"x_max":649,"o":"m 624 903 q 642 880 638 886 q 647 856 646 874 q 638 811 647 838 q 596 725 622 771 q 509 560 551 650 q 440 404 467 471 q 369 222 414 338 q 296 33 325 106 q 179 -18 267 -39 q 82 42 114 -3 q 74 86 63 67 q 241 468 125 232 q 488 935 357 704 q 514 952 496 950 q 553 945 532 954 q 592 925 574 936 q 624 903 610 914 z "},":":{"ha":260,"x_min":14,"x_max":233,"o":"m 126 286 q 199 245 168 279 q 232 164 231 211 q 203 72 231 106 q 144 33 176 38 q 79 52 111 29 q 35 118 47 75 q 41 243 15 189 q 126 286 67 297 m 232 676 q 213 599 231 631 q 170 556 196 567 q 117 549 144 546 q 67 574 90 551 q 35 632 44 597 q 41 757 15 703 q 126 800 67 811 q 199 759 168 793 q 232 676 231 725 z "},";":{"ha":282,"x_min":14,"x_max":257,"o":"m 249 175 q 256 105 256 146 q 248 21 256 64 q 217 -57 240 -22 q 161 -101 194 -92 q 113 -92 135 -111 q 100 -46 90 -72 q 124 -21 107 -29 q 179 47 167 10 q 96 42 142 21 q 35 118 50 63 q 48 238 15 188 q 142 278 81 289 q 249 175 224 264 m 232 676 q 213 599 231 631 q 170 556 196 567 q 117 549 144 546 q 67 574 90 551 q 35 632 44 597 q 41 757 15 703 q 126 800 67 811 q 199 759 168 793 q 232 676 231 725 z "},"<":{"ha":553,"x_min":13,"x_max":532,"o":"m 526 404 q 526 369 532 393 q 493 264 513 315 q 481 248 488 251 q 463 247 475 244 q 259 310 389 263 q 81 374 129 358 q 38 401 54 381 q 21 519 14 431 q 31 553 24 544 q 51 567 36 560 q 176 610 93 585 q 314 660 260 635 q 351 679 326 665 q 396 703 376 693 q 437 722 415 714 q 474 727 458 729 q 494 711 489 725 q 513 581 521 649 q 508 567 511 571 q 492 558 504 561 q 194 471 278 507 q 478 426 267 449 q 526 404 517 422 z "},"=":{"ha":546,"x_min":24,"x_max":521,"o":"m 360 585 q 212 586 283 593 q 85 584 140 579 q 28 617 31 589 q 26 645 26 626 q 28 684 26 664 q 33 723 31 704 q 39 751 36 742 q 58 778 44 772 q 78 779 64 781 q 151 772 103 778 q 227 765 199 767 q 303 761 256 763 q 375 765 350 760 q 457 767 406 769 q 508 746 496 764 q 517 690 514 738 q 515 625 521 643 q 499 593 510 603 q 451 581 485 582 q 360 585 406 579 m 457 519 q 508 499 496 517 q 517 443 514 490 q 515 378 521 396 q 499 346 510 356 q 451 333 485 335 q 360 338 406 332 q 212 339 283 346 q 85 337 140 332 q 28 369 31 342 q 29 436 25 390 q 39 503 33 482 q 58 531 44 525 q 78 532 64 533 q 151 525 103 531 q 227 517 199 519 q 303 514 256 515 q 375 518 350 513 q 457 519 406 522 z "},">":{"ha":553,"x_min":21,"x_max":540,"o":"m 515 572 q 532 454 539 543 q 521 421 529 429 q 501 408 517 414 q 376 364 460 389 q 239 314 293 339 q 201 294 226 308 q 156 271 176 281 q 115 253 136 261 q 78 247 93 244 q 58 263 64 249 q 40 393 32 325 q 44 408 40 403 q 61 415 49 413 q 358 503 275 467 q 75 547 286 525 q 26 569 35 551 q 26 604 21 581 q 60 710 40 658 q 71 726 65 722 q 90 726 76 729 q 294 663 164 711 q 472 601 424 615 q 515 572 497 593 z "},"?":{"ha":758,"x_min":68,"x_max":693,"o":"m 296 286 q 369 245 338 279 q 403 164 400 211 q 374 72 400 106 q 314 33 347 38 q 249 52 281 29 q 204 118 217 75 q 210 243 185 189 q 296 286 236 297 m 689 775 q 674 671 693 715 q 623 602 654 626 q 553 560 592 578 q 481 533 514 542 q 423 511 447 524 q 396 485 399 499 q 401 408 393 467 q 394 338 408 349 q 325 315 383 319 q 214 325 274 311 q 194 342 201 329 q 186 368 186 354 q 193 489 188 453 q 208 539 199 525 q 247 574 218 553 q 330 622 264 585 q 422 686 396 660 q 458 764 454 719 q 428 858 463 821 q 353 880 393 896 q 303 790 313 864 q 303 769 301 781 q 305 744 306 757 q 301 718 304 731 q 288 694 299 706 q 261 674 278 682 q 156 653 213 650 q 85 676 100 656 q 69 738 71 696 q 78 824 68 779 q 117 910 89 869 q 183 965 144 951 q 249 989 238 986 q 510 990 394 1029 q 651 885 603 958 q 689 775 683 835 z "},"@":{"ha":1136,"x_min":19,"x_max":1071,"o":"m 885 850 q 1022 715 974 790 q 1065 533 1069 640 q 1049 440 1064 483 q 931 274 1014 339 q 738 206 847 210 q 699 210 718 204 q 664 227 679 215 q 638 256 649 239 q 622 292 626 272 q 553 251 593 261 q 457 238 514 240 q 367 260 410 236 q 303 325 325 283 q 281 528 253 418 q 397 689 310 639 q 505 705 457 713 q 582 675 553 697 l 611 654 q 624 677 614 668 q 649 686 635 686 q 725 671 693 689 q 744 640 744 661 q 744 537 746 599 q 743 436 742 475 q 751 404 744 415 q 765 390 757 393 q 786 388 774 386 q 810 396 799 390 q 835 410 821 401 q 894 504 888 442 q 901 553 900 536 q 899 598 901 569 q 885 646 896 626 q 852 690 875 665 q 793 735 829 714 q 633 789 722 778 q 544 796 583 796 q 453 789 504 796 q 357 756 403 782 q 272 686 311 729 q 221 318 146 542 q 311 205 242 253 q 432 165 381 157 q 513 156 488 174 q 547 93 538 138 q 555 54 553 69 q 555 21 557 39 q 540 -9 553 3 q 504 -26 528 -21 q 372 -32 449 -42 q 249 14 296 -22 q 94 192 147 89 q 38 341 56 268 q 22 460 19 414 q 26 554 25 507 q 76 710 32 633 q 183 842 119 786 q 303 908 229 882 q 732 917 508 985 q 885 850 832 886 m 578 453 q 579 499 583 471 q 560 539 576 531 q 513 526 540 547 q 469 475 482 501 q 496 410 446 424 q 546 415 522 403 q 578 453 569 426 z "},"A":{"ha":718,"x_min":1,"x_max":725,"o":"m 608 -43 q 410 25 414 -60 q 411 60 410 42 q 417 104 413 79 q 424 140 422 129 q 404 253 432 213 q 366 276 390 274 q 326 260 342 278 q 315 215 310 243 l 346 64 q 338 -22 358 4 q 268 -54 318 -47 q 137 -56 196 -62 q 40 -15 78 -50 q 1 82 1 21 q 65 482 1 231 q 199 903 128 733 q 260 951 215 944 q 418 942 342 965 q 455 919 438 936 q 488 870 472 901 q 517 811 504 839 q 544 734 529 783 q 567 656 558 685 q 590 571 575 626 q 591 565 590 567 q 593 560 592 563 q 595 554 594 557 q 596 549 596 551 q 637 415 604 517 q 694 225 669 314 q 722 78 718 136 q 719 37 724 56 q 703 4 714 18 q 677 -20 692 -10 q 645 -36 663 -31 q 608 -43 628 -42 m 383 422 q 413 525 413 453 q 386 643 413 597 q 356 669 372 667 q 329 661 340 672 q 313 632 318 650 q 306 472 289 557 q 368 413 322 390 l 383 422 z "},"À":{"ha":718,"x_min":1,"x_max":725,"o":"m 608 -43 q 410 25 414 -60 q 411 60 410 42 q 417 104 413 79 q 424 140 422 129 q 404 253 432 213 q 366 276 390 274 q 326 260 342 278 q 315 215 310 243 l 346 64 q 338 -22 358 4 q 268 -54 318 -47 q 137 -56 196 -62 q 40 -15 78 -50 q 1 82 1 21 q 65 482 1 231 q 199 903 128 733 q 260 951 215 944 q 418 942 342 965 q 455 919 438 936 q 488 870 472 901 q 517 811 504 839 q 544 734 529 783 q 567 656 558 685 q 590 571 575 626 q 591 565 590 567 q 593 560 592 563 q 595 554 594 557 q 596 549 596 551 q 637 415 604 517 q 694 225 669 314 q 722 78 718 136 q 719 37 724 56 q 703 4 714 18 q 677 -20 692 -10 q 645 -36 663 -31 q 608 -43 628 -42 m 383 422 q 413 525 413 453 q 386 643 413 597 q 356 669 372 667 q 329 661 340 672 q 313 632 318 650 q 306 472 289 557 q 368 413 322 390 l 383 422 z "},"Á":{"ha":718,"x_min":1,"x_max":725,"o":"m 608 -43 q 410 25 414 -60 q 411 60 410 42 q 417 104 413 79 q 424 140 422 129 q 404 253 432 213 q 366 276 390 274 q 326 260 342 278 q 315 215 310 243 l 346 64 q 338 -22 358 4 q 268 -54 318 -47 q 137 -56 196 -62 q 40 -15 78 -50 q 1 82 1 21 q 65 482 1 231 q 199 903 128 733 q 260 951 215 944 q 418 942 342 965 q 455 919 438 936 q 488 870 472 901 q 517 811 504 839 q 544 734 529 783 q 567 656 558 685 q 590 571 575 626 q 591 565 590 567 q 593 560 592 563 q 595 554 594 557 q 596 549 596 551 q 637 415 604 517 q 694 225 669 314 q 722 78 718 136 q 719 37 724 56 q 703 4 714 18 q 677 -20 692 -10 q 645 -36 663 -31 q 608 -43 628 -42 m 383 422 q 413 525 413 453 q 386 643 413 597 q 356 669 372 667 q 329 661 340 672 q 313 632 318 650 q 306 472 289 557 q 368 413 322 390 l 383 422 z "},"Â":{"ha":718,"x_min":1,"x_max":725,"o":"m 608 -43 q 410 25 414 -60 q 411 60 410 42 q 417 104 413 79 q 424 140 422 129 q 404 253 432 213 q 366 276 390 274 q 326 260 342 278 q 315 215 310 243 l 346 64 q 338 -22 358 4 q 268 -54 318 -47 q 137 -56 196 -62 q 40 -15 78 -50 q 1 82 1 21 q 65 482 1 231 q 199 903 128 733 q 260 951 215 944 q 418 942 342 965 q 455 919 438 936 q 488 870 472 901 q 517 811 504 839 q 544 734 529 783 q 567 656 558 685 q 590 571 575 626 q 591 565 590 567 q 593 560 592 563 q 595 554 594 557 q 596 549 596 551 q 637 415 604 517 q 694 225 669 314 q 722 78 718 136 q 719 37 724 56 q 703 4 714 18 q 677 -20 692 -10 q 645 -36 663 -31 q 608 -43 628 -42 m 383 422 q 413 525 413 453 q 386 643 413 597 q 356 669 372 667 q 329 661 340 672 q 313 632 318 650 q 306 472 289 557 q 368 413 322 390 l 383 422 z "},"Ã":{"ha":718,"x_min":1,"x_max":725,"o":"m 608 -43 q 410 25 414 -60 q 411 60 410 42 q 417 104 413 79 q 424 140 422 129 q 404 253 432 213 q 366 276 390 274 q 326 260 342 278 q 315 215 310 243 l 346 64 q 338 -22 358 4 q 268 -54 318 -47 q 137 -56 196 -62 q 40 -15 78 -50 q 1 82 1 21 q 65 482 1 231 q 199 903 128 733 q 260 951 215 944 q 418 942 342 965 q 455 919 438 936 q 488 870 472 901 q 517 811 504 839 q 544 734 529 783 q 567 656 558 685 q 590 571 575 626 q 591 565 590 567 q 593 560 592 563 q 595 554 594 557 q 596 549 596 551 q 637 415 604 517 q 694 225 669 314 q 722 78 718 136 q 719 37 724 56 q 703 4 714 18 q 677 -20 692 -10 q 645 -36 663 -31 q 608 -43 628 -42 m 383 422 q 413 525 413 453 q 386 643 413 597 q 356 669 372 667 q 329 661 340 672 q 313 632 318 650 q 306 472 289 557 q 368 413 322 390 l 383 422 z "},"Ä":{"ha":718,"x_min":1,"x_max":725,"o":"m 608 -43 q 410 25 414 -60 q 411 60 410 42 q 417 104 413 79 q 424 140 422 129 q 404 253 432 213 q 366 276 390 274 q 326 260 342 278 q 315 215 310 243 l 346 64 q 338 -22 358 4 q 268 -54 318 -47 q 137 -56 196 -62 q 40 -15 78 -50 q 1 82 1 21 q 65 482 1 231 q 199 903 128 733 q 260 951 215 944 q 418 942 342 965 q 455 919 438 936 q 488 870 472 901 q 517 811 504 839 q 544 734 529 783 q 567 656 558 685 q 590 571 575 626 q 591 565 590 567 q 593 560 592 563 q 595 554 594 557 q 596 549 596 551 q 637 415 604 517 q 694 225 669 314 q 722 78 718 136 q 719 37 724 56 q 703 4 714 18 q 677 -20 692 -10 q 645 -36 663 -31 q 608 -43 628 -42 m 383 422 q 413 525 413 453 q 386 643 413 597 q 356 669 372 667 q 329 661 340 672 q 313 632 318 650 q 306 472 289 557 q 368 413 322 390 l 383 422 z "},"Å":{"ha":718,"x_min":1,"x_max":725,"o":"m 608 -43 q 410 25 414 -60 q 411 60 410 42 q 417 104 413 79 q 424 140 422 129 q 404 253 432 213 q 366 276 390 274 q 326 260 342 278 q 315 215 310 243 l 346 64 q 338 -22 358 4 q 268 -54 318 -47 q 137 -56 196 -62 q 40 -15 78 -50 q 1 82 1 21 q 65 482 1 231 q 199 903 128 733 q 260 951 215 944 q 418 942 342 965 q 455 919 438 936 q 488 870 472 901 q 517 811 504 839 q 544 734 529 783 q 567 656 558 685 q 590 571 575 626 q 591 565 590 567 q 593 560 592 563 q 595 554 594 557 q 596 549 596 551 q 637 415 604 517 q 694 225 669 314 q 722 78 718 136 q 719 37 724 56 q 703 4 714 18 q 677 -20 692 -10 q 645 -36 663 -31 q 608 -43 628 -42 m 383 422 q 413 525 413 453 q 386 643 413 597 q 356 669 372 667 q 329 661 340 672 q 313 632 318 650 q 306 472 289 557 q 368 413 322 390 l 383 422 z "},"B":{"ha":631,"x_min":19,"x_max":636,"o":"m 89 8 q 36 29 51 14 q 24 90 21 44 q 30 168 28 129 q 33 253 32 207 q 35 330 35 300 q 35 416 36 360 q 35 493 35 472 q 34 580 36 514 q 32 658 32 646 q 30 747 32 671 q 28 829 28 824 q 45 891 26 871 q 108 926 64 911 q 227 953 168 947 q 344 944 286 960 q 438 892 401 929 q 390 575 551 776 q 517 503 463 550 q 601 399 572 456 q 632 281 629 343 q 612 165 635 219 q 533 68 589 111 q 394 7 478 25 q 89 8 254 -18 m 235 313 q 269 240 238 238 q 314 289 296 243 q 318 385 335 339 q 271 421 299 432 q 235 313 233 403 m 285 796 q 258 801 268 803 q 241 788 247 800 q 231 763 235 776 q 228 733 228 750 q 228 705 228 717 q 229 685 229 693 q 235 665 232 672 q 251 653 242 654 q 282 671 267 650 q 308 763 318 719 q 285 796 303 786 z "},"C":{"ha":694,"x_min":1,"x_max":714,"o":"m 254 24 q 101 131 163 51 q 22 315 40 210 q 10 535 3 421 q 60 755 18 649 q 167 932 103 861 q 290 1022 222 992 q 463 1035 368 1058 q 600 946 558 1011 q 644 839 633 903 q 644 717 656 775 q 590 622 632 660 q 486 589 549 583 q 447 600 463 592 q 424 624 432 608 q 413 652 417 640 q 407 686 410 664 q 401 718 404 708 q 331 743 385 796 q 271 653 297 713 q 226 463 233 574 q 249 267 218 353 q 297 211 263 225 q 364 213 332 197 q 407 265 396 229 q 418 303 414 290 q 429 339 422 317 q 441 372 436 361 q 454 402 446 383 q 469 428 463 421 q 488 449 476 435 q 508 465 499 464 q 531 475 517 467 q 559 478 546 483 q 590 475 572 474 q 674 406 647 463 q 660 208 713 321 q 594 113 635 158 q 507 46 553 68 q 254 24 382 -12 z "},"Ç":{"ha":694,"x_min":1,"x_max":714,"o":"m 254 24 q 101 131 163 51 q 22 315 40 210 q 10 535 3 421 q 60 755 18 649 q 167 932 103 861 q 290 1022 222 992 q 463 1035 368 1058 q 600 946 558 1011 q 644 839 633 903 q 644 717 656 775 q 590 622 632 660 q 486 589 549 583 q 447 600 463 592 q 424 624 432 608 q 413 652 417 640 q 407 686 410 664 q 401 718 404 708 q 331 743 385 796 q 271 653 297 713 q 226 463 233 574 q 249 267 218 353 q 297 211 263 225 q 364 213 332 197 q 407 265 396 229 q 418 303 414 290 q 429 339 422 317 q 441 372 436 361 q 454 402 446 383 q 469 428 463 421 q 488 449 476 435 q 508 465 499 464 q 531 475 517 467 q 559 478 546 483 q 590 475 572 474 q 674 406 647 463 q 660 208 713 321 q 594 113 635 158 q 507 46 553 68 q 254 24 382 -12 z "},"D":{"ha":644,"x_min":22,"x_max":644,"o":"m 71 -18 q 35 0 49 -15 q 24 36 22 15 q 32 306 24 51 q 33 744 40 561 q 53 869 31 828 q 150 915 75 910 q 383 871 274 928 q 560 706 492 814 q 636 461 628 597 q 616 260 643 349 q 536 117 589 172 q 408 27 483 61 q 249 -17 333 -7 q 71 -18 165 -26 m 253 674 q 247 669 246 675 q 257 483 254 588 q 253 301 260 379 q 270 294 254 292 q 299 306 286 297 q 365 397 349 335 q 367 517 381 458 q 321 623 353 576 q 253 674 289 669 z "},"E":{"ha":668,"x_min":17,"x_max":665,"o":"m 178 -6 q 131 -7 153 -7 q 87 0 110 -7 q 49 22 64 7 q 19 131 17 54 q 35 315 22 189 q 47 518 47 442 q 43 667 49 576 q 35 802 38 758 q 43 892 32 846 q 87 926 54 919 q 181 924 119 932 q 261 917 242 917 q 514 933 400 917 q 586 925 565 940 q 619 851 614 907 q 610 679 629 765 q 597 649 604 658 q 543 625 581 625 q 458 637 506 626 q 360 663 411 647 q 285 682 308 678 q 260 681 268 686 q 246 651 249 675 q 240 567 239 604 q 247 553 240 558 q 263 549 254 547 q 288 556 271 551 q 316 564 304 561 q 344 569 328 567 q 371 572 360 572 q 394 567 382 571 q 413 554 406 564 q 424 529 421 544 q 420 401 447 432 q 310 381 393 371 q 243 346 242 389 q 251 250 244 306 q 276 229 254 225 q 416 272 338 233 q 539 322 494 311 q 638 267 617 340 q 658 182 651 218 q 663 108 664 146 q 649 46 663 69 q 602 8 635 22 q 518 -3 569 -6 q 178 -6 382 6 z "},"È":{"ha":668,"x_min":17,"x_max":665,"o":"m 178 -6 q 131 -7 153 -7 q 87 0 110 -7 q 49 22 64 7 q 19 131 17 54 q 35 315 22 189 q 47 518 47 442 q 43 667 49 576 q 35 802 38 758 q 43 892 32 846 q 87 926 54 919 q 181 924 119 932 q 261 917 242 917 q 514 933 400 917 q 586 925 565 940 q 619 851 614 907 q 610 679 629 765 q 597 649 604 658 q 543 625 581 625 q 458 637 506 626 q 360 663 411 647 q 285 682 308 678 q 260 681 268 686 q 246 651 249 675 q 240 567 239 604 q 247 553 240 558 q 263 549 254 547 q 288 556 271 551 q 316 564 304 561 q 344 569 328 567 q 371 572 360 572 q 394 567 382 571 q 413 554 406 564 q 424 529 421 544 q 420 401 447 432 q 310 381 393 371 q 243 346 242 389 q 251 250 244 306 q 276 229 254 225 q 416 272 338 233 q 539 322 494 311 q 638 267 617 340 q 658 182 651 218 q 663 108 664 146 q 649 46 663 69 q 602 8 635 22 q 518 -3 569 -6 q 178 -6 382 6 z "},"É":{"ha":668,"x_min":17,"x_max":665,"o":"m 178 -6 q 131 -7 153 -7 q 87 0 110 -7 q 49 22 64 7 q 19 131 17 54 q 35 315 22 189 q 47 518 47 442 q 43 667 49 576 q 35 802 38 758 q 43 892 32 846 q 87 926 54 919 q 181 924 119 932 q 261 917 242 917 q 514 933 400 917 q 586 925 565 940 q 619 851 614 907 q 610 679 629 765 q 597 649 604 658 q 543 625 581 625 q 458 637 506 626 q 360 663 411 647 q 285 682 308 678 q 260 681 268 686 q 246 651 249 675 q 240 567 239 604 q 247 553 240 558 q 263 549 254 547 q 288 556 271 551 q 316 564 304 561 q 344 569 328 567 q 371 572 360 572 q 394 567 382 571 q 413 554 406 564 q 424 529 421 544 q 420 401 447 432 q 310 381 393 371 q 243 346 242 389 q 251 250 244 306 q 276 229 254 225 q 416 272 338 233 q 539 322 494 311 q 638 267 617 340 q 658 182 651 218 q 663 108 664 146 q 649 46 663 69 q 602 8 635 22 q 518 -3 569 -6 q 178 -6 382 6 z "},"Ê":{"ha":668,"x_min":17,"x_max":665,"o":"m 178 -6 q 131 -7 153 -7 q 87 0 110 -7 q 49 22 64 7 q 19 131 17 54 q 35 315 22 189 q 47 518 47 442 q 43 667 49 576 q 35 802 38 758 q 43 892 32 846 q 87 926 54 919 q 181 924 119 932 q 261 917 242 917 q 514 933 400 917 q 586 925 565 940 q 619 851 614 907 q 610 679 629 765 q 597 649 604 658 q 543 625 581 625 q 458 637 506 626 q 360 663 411 647 q 285 682 308 678 q 260 681 268 686 q 246 651 249 675 q 240 567 239 604 q 247 553 240 558 q 263 549 254 547 q 288 556 271 551 q 316 564 304 561 q 344 569 328 567 q 371 572 360 572 q 394 567 382 571 q 413 554 406 564 q 424 529 421 544 q 420 401 447 432 q 310 381 393 371 q 243 346 242 389 q 251 250 244 306 q 276 229 254 225 q 416 272 338 233 q 539 322 494 311 q 638 267 617 340 q 658 182 651 218 q 663 108 664 146 q 649 46 663 69 q 602 8 635 22 q 518 -3 569 -6 q 178 -6 382 6 z "},"Ë":{"ha":668,"x_min":17,"x_max":665,"o":"m 178 -6 q 131 -7 153 -7 q 87 0 110 -7 q 49 22 64 7 q 19 131 17 54 q 35 315 22 189 q 47 518 47 442 q 43 667 49 576 q 35 802 38 758 q 43 892 32 846 q 87 926 54 919 q 181 924 119 932 q 261 917 242 917 q 514 933 400 917 q 586 925 565 940 q 619 851 614 907 q 610 679 629 765 q 597 649 604 658 q 543 625 581 625 q 458 637 506 626 q 360 663 411 647 q 285 682 308 678 q 260 681 268 686 q 246 651 249 675 q 240 567 239 604 q 247 553 240 558 q 263 549 254 547 q 288 556 271 551 q 316 564 304 561 q 344 569 328 567 q 371 572 360 572 q 394 567 382 571 q 413 554 406 564 q 424 529 421 544 q 420 401 447 432 q 310 381 393 371 q 243 346 242 389 q 251 250 244 306 q 276 229 254 225 q 416 272 338 233 q 539 322 494 311 q 638 267 617 340 q 658 182 651 218 q 663 108 664 146 q 649 46 663 69 q 602 8 635 22 q 518 -3 569 -6 q 178 -6 382 6 z "},"F":{"ha":615,"x_min":19,"x_max":632,"o":"m 257 21 q 42 36 71 0 q 26 72 31 50 q 21 115 21 94 q 22 157 21 136 q 37 353 24 213 q 49 571 50 493 q 46 734 51 629 q 38 894 40 839 q 44 997 35 949 q 80 1027 54 1018 q 131 1035 106 1036 q 199 1029 157 1033 q 263 1025 240 1025 q 517 1038 426 1025 q 589 1031 567 1044 q 622 957 617 1013 q 611 785 632 869 q 600 754 607 764 q 546 731 583 729 q 394 759 494 732 q 286 788 294 786 q 261 786 269 792 q 247 756 249 779 q 253 660 244 696 q 288 636 260 631 q 297 638 292 636 q 360 648 338 646 q 413 643 383 650 q 451 614 443 636 q 468 525 467 572 q 461 456 469 478 q 417 417 451 426 q 322 425 382 408 q 285 419 294 433 q 278 382 275 406 q 297 274 285 328 q 318 178 308 219 q 329 108 328 138 q 313 47 332 67 q 257 21 294 26 z "},"G":{"ha":711,"x_min":3,"x_max":707,"o":"m 258 -54 q 104 53 165 -26 q 24 240 43 133 q 12 462 4 347 q 62 684 19 576 q 169 863 104 792 q 294 954 233 931 q 371 967 326 965 q 460 960 415 968 q 546 930 506 951 q 607 876 586 908 q 652 778 640 833 q 652 675 664 722 q 598 598 640 628 q 492 574 556 568 q 453 585 468 576 q 430 609 438 593 q 419 637 422 625 q 412 671 415 649 q 407 703 408 693 q 335 729 389 781 q 274 638 303 699 q 230 447 238 558 q 251 247 222 335 q 292 193 265 210 q 345 182 319 176 q 390 206 371 188 q 413 247 410 224 q 400 276 414 267 q 367 289 386 286 q 328 301 349 292 q 299 329 307 311 q 287 422 278 374 q 325 479 296 471 q 447 491 378 490 q 585 471 515 492 q 681 417 656 450 q 704 329 703 388 q 694 219 706 271 q 667 132 683 167 q 600 35 642 81 q 514 -31 558 -10 q 258 -54 388 -92 z "},"H":{"ha":715,"x_min":19,"x_max":704,"o":"m 36 117 q 24 179 26 140 q 23 270 21 218 q 28 360 25 322 q 38 456 32 397 q 44 531 43 514 q 40 724 50 592 q 31 872 31 856 q 161 1036 22 1042 q 189 1036 168 1036 q 218 1035 210 1036 q 244 1033 226 1035 q 269 1028 261 1031 q 290 1019 278 1025 q 309 1006 303 1014 q 322 985 315 997 q 331 958 328 974 q 336 824 340 899 q 321 682 332 750 q 318 619 313 635 q 330 602 322 607 q 356 597 338 597 q 382 601 372 597 q 397 615 392 606 q 403 639 403 624 q 381 893 408 746 q 407 1001 367 971 q 497 1029 443 1029 q 545 1028 528 1029 q 587 1024 563 1028 q 621 1011 611 1019 q 646 987 631 1003 q 659 948 661 971 q 658 892 657 925 q 651 765 651 835 q 653 638 650 696 q 665 499 657 581 q 680 373 674 418 q 697 247 686 328 q 703 163 701 221 q 671 110 704 131 q 594 84 638 89 q 508 77 550 79 q 447 81 465 75 q 388 114 401 89 q 379 181 375 139 q 388 246 379 185 q 400 346 397 307 q 350 460 399 456 q 307 397 297 463 q 314 358 308 381 q 328 306 319 336 q 342 253 336 276 q 350 147 349 219 q 278 86 351 107 q 126 75 204 65 q 36 117 47 85 z "},"I":{"ha":340,"x_min":19,"x_max":326,"o":"m 38 460 q 35 786 54 671 q 22 900 22 874 q 49 974 22 951 q 118 993 69 992 q 194 993 169 996 q 268 967 246 989 q 293 886 290 946 q 293 705 294 853 q 299 474 292 557 q 310 361 301 435 q 322 235 318 288 q 322 146 325 183 q 307 81 317 100 q 267 52 297 63 q 169 39 236 42 q 60 63 90 38 q 24 159 29 88 q 31 358 19 231 q 38 460 35 422 z "},"Ì":{"ha":340,"x_min":19,"x_max":326,"o":"m 38 460 q 35 786 54 671 q 22 900 22 874 q 49 974 22 951 q 118 993 69 992 q 194 993 169 996 q 268 967 246 989 q 293 886 290 946 q 293 705 294 853 q 299 474 292 557 q 310 361 301 435 q 322 235 318 288 q 322 146 325 183 q 307 81 317 100 q 267 52 297 63 q 169 39 236 42 q 60 63 90 38 q 24 159 29 88 q 31 358 19 231 q 38 460 35 422 z "},"Í":{"ha":340,"x_min":19,"x_max":326,"o":"m 38 460 q 35 786 54 671 q 22 900 22 874 q 49 974 22 951 q 118 993 69 992 q 194 993 169 996 q 268 967 246 989 q 293 886 290 946 q 293 705 294 853 q 299 474 292 557 q 310 361 301 435 q 322 235 318 288 q 322 146 325 183 q 307 81 317 100 q 267 52 297 63 q 169 39 236 42 q 60 63 90 38 q 24 159 29 88 q 31 358 19 231 q 38 460 35 422 z "},"Î":{"ha":340,"x_min":19,"x_max":326,"o":"m 38 460 q 35 786 54 671 q 22 900 22 874 q 49 974 22 951 q 118 993 69 992 q 194 993 169 996 q 268 967 246 989 q 293 886 290 946 q 293 705 294 853 q 299 474 292 557 q 310 361 301 435 q 322 235 318 288 q 322 146 325 183 q 307 81 317 100 q 267 52 297 63 q 169 39 236 42 q 60 63 90 38 q 24 159 29 88 q 31 358 19 231 q 38 460 35 422 z "},"Ï":{"ha":340,"x_min":19,"x_max":326,"o":"m 38 460 q 35 786 54 671 q 22 900 22 874 q 49 974 22 951 q 118 993 69 992 q 194 993 169 996 q 268 967 246 989 q 293 886 290 946 q 293 705 294 853 q 299 474 292 557 q 310 361 301 435 q 322 235 318 288 q 322 146 325 183 q 307 81 317 100 q 267 52 297 63 q 169 39 236 42 q 60 63 90 38 q 24 159 29 88 q 31 358 19 231 q 38 460 35 422 z "},"J":{"ha":553,"x_min":-19,"x_max":531,"o":"m 157 -49 q 69 -4 111 -33 q 3 61 28 25 q -11 129 -18 93 q 47 249 3 190 q 136 301 92 307 q 181 276 157 299 q 224 235 204 253 q 258 221 243 217 q 283 240 272 226 q 299 277 293 254 q 307 323 304 300 q 308 380 310 346 q 305 439 307 414 q 298 501 303 464 q 291 558 293 539 q 283 610 289 576 q 282 622 282 618 q 271 676 279 633 q 258 751 263 719 q 251 822 254 783 q 256 888 249 861 q 279 922 263 914 q 396 943 318 944 q 478 927 447 943 q 515 868 510 911 q 526 737 524 810 q 529 557 529 664 q 529 411 529 450 q 529 388 529 403 q 526 323 528 346 q 522 258 525 300 q 512 188 518 215 q 494 123 506 160 q 468 60 483 86 q 429 7 453 33 q 376 -37 406 -19 q 157 -49 286 -92 z "},"K":{"ha":722,"x_min":15,"x_max":732,"o":"m 165 14 q 51 42 82 14 q 19 146 21 69 q 32 360 17 222 q 42 468 39 428 q 50 819 67 694 q 40 940 39 913 q 69 1018 43 996 q 142 1038 92 1038 q 214 1036 190 1039 q 296 1007 272 1031 q 321 918 319 983 q 315 713 321 885 q 319 708 315 710 q 324 711 322 707 q 384 840 344 751 q 447 972 424 928 q 492 1014 461 999 q 550 1022 522 1029 q 627 972 582 1014 q 682 886 672 931 q 678 807 692 840 q 666 786 674 796 q 652 769 658 776 q 633 753 646 763 q 615 740 621 744 q 593 727 608 736 q 574 715 578 718 q 433 594 500 669 q 425 543 413 572 q 546 356 468 446 q 603 293 574 324 q 651 246 633 263 q 685 210 668 229 q 710 174 701 192 q 725 132 719 156 q 718 72 731 99 q 680 29 706 44 q 626 6 654 14 q 571 -4 599 -3 q 478 14 503 -7 q 436 85 453 35 q 325 442 421 135 q 319 453 322 450 q 315 439 315 457 q 321 368 318 415 q 326 290 324 321 q 329 219 328 258 q 330 148 331 179 q 326 94 329 117 q 318 60 325 75 q 299 37 311 46 q 275 23 286 28 q 244 16 264 18 q 213 14 225 14 q 178 14 200 14 q 174 14 175 14 q 169 14 172 14 q 165 14 167 14 z "},"L":{"ha":632,"x_min":17,"x_max":644,"o":"m 178 -4 q 131 -5 153 -4 q 87 1 110 -6 q 49 24 64 8 q 19 132 17 56 q 35 305 22 193 q 47 493 47 417 q 43 664 49 551 q 35 837 38 776 q 43 946 32 897 q 86 975 51 967 q 150 983 121 983 q 233 976 179 982 q 244 975 240 975 q 292 951 272 972 q 311 903 311 931 q 297 699 311 824 q 273 466 283 574 q 268 303 263 358 q 283 269 269 281 q 322 264 297 257 q 408 292 354 272 q 513 324 463 311 q 568 308 542 331 q 611 242 594 286 q 636 162 628 197 q 642 94 644 126 q 625 40 640 61 q 576 7 610 18 q 492 0 543 -4 q 178 -4 368 7 z "},"M":{"ha":928,"x_min":4,"x_max":917,"o":"m 17 99 q 19 246 6 128 q 51 547 32 364 q 67 876 69 731 q 73 915 65 899 q 96 940 81 931 q 125 956 111 950 q 163 965 139 963 q 199 969 186 968 q 235 969 213 969 q 244 969 242 969 q 278 966 261 969 q 311 956 296 963 q 338 938 326 949 q 351 913 349 926 q 457 458 428 665 q 540 911 476 736 q 579 967 556 954 q 656 985 608 979 q 751 987 703 990 q 833 959 799 983 q 865 892 867 935 q 903 236 857 569 q 907 207 904 226 q 913 160 911 175 q 915 122 914 146 q 913 88 917 99 q 903 62 910 76 q 883 40 896 47 q 849 28 869 33 q 800 21 828 22 q 701 20 744 17 q 631 37 658 24 q 592 81 603 50 q 588 167 581 113 q 616 359 592 206 q 653 617 640 513 q 657 729 667 722 q 563 239 601 529 q 519 185 558 204 q 439 172 479 165 q 392 211 399 179 q 360 381 381 265 q 322 586 340 497 q 290 713 304 675 q 291 689 290 713 q 295 623 292 665 q 303 529 299 581 q 315 413 307 478 q 335 292 324 349 q 340 264 335 290 q 346 229 344 238 q 351 197 347 221 q 354 161 354 174 q 352 131 354 149 q 346 103 350 114 q 258 53 333 68 q 106 50 182 38 q 17 99 29 63 z "},"N":{"ha":731,"x_min":6,"x_max":710,"o":"m 13 119 q 35 402 7 218 q 63 701 64 586 q 61 759 63 722 q 60 812 60 796 q 63 851 60 828 q 75 886 67 875 q 100 908 83 897 q 142 924 117 918 q 252 932 199 936 q 329 907 306 928 q 440 538 371 865 q 503 294 489 307 q 508 296 507 293 l 429 758 q 428 767 428 761 q 419 810 422 796 q 413 851 417 825 q 412 890 410 876 q 417 922 414 903 q 429 950 419 940 q 453 970 439 960 q 489 985 467 981 q 539 989 511 989 q 575 988 564 989 q 608 986 586 988 q 640 981 629 985 q 665 969 651 976 q 683 949 678 961 q 689 921 689 938 q 690 788 690 888 q 693 574 690 688 q 701 335 696 460 q 704 289 701 322 q 708 232 707 256 q 708 176 710 208 q 702 122 707 143 q 685 81 697 100 q 656 56 674 63 q 499 39 564 25 q 458 53 476 44 q 428 69 440 61 q 405 91 415 78 q 389 115 394 104 q 378 143 383 125 q 369 172 372 161 q 363 205 367 183 q 356 239 358 226 q 317 452 346 282 q 258 713 288 622 q 247 699 247 724 q 251 664 247 679 q 276 531 264 604 q 294 402 288 458 q 309 264 300 346 q 325 135 318 182 q 269 51 335 63 q 203 46 240 47 q 122 47 167 44 q 45 69 76 50 q 13 119 14 88 z "},"Ñ":{"ha":731,"x_min":6,"x_max":710,"o":"m 13 119 q 35 402 7 218 q 63 701 64 586 q 61 759 63 722 q 60 812 60 796 q 63 851 60 828 q 75 886 67 875 q 100 908 83 897 q 142 924 117 918 q 252 932 199 936 q 329 907 306 928 q 440 538 371 865 q 503 294 489 307 q 508 296 507 293 l 429 758 q 428 767 428 761 q 419 810 422 796 q 413 851 417 825 q 412 890 410 876 q 417 922 414 903 q 429 950 419 940 q 453 970 439 960 q 489 985 467 981 q 539 989 511 989 q 575 988 564 989 q 608 986 586 988 q 640 981 629 985 q 665 969 651 976 q 683 949 678 961 q 689 921 689 938 q 690 788 690 888 q 693 574 690 688 q 701 335 696 460 q 704 289 701 322 q 708 232 707 256 q 708 176 710 208 q 702 122 707 143 q 685 81 697 100 q 656 56 674 63 q 499 39 564 25 q 458 53 476 44 q 428 69 440 61 q 405 91 415 78 q 389 115 394 104 q 378 143 383 125 q 369 172 372 161 q 363 205 367 183 q 356 239 358 226 q 317 452 346 282 q 258 713 288 622 q 247 699 247 724 q 251 664 247 679 q 276 531 264 604 q 294 402 288 458 q 309 264 300 346 q 325 135 318 182 q 269 51 335 63 q 203 46 240 47 q 122 47 167 44 q 45 69 76 50 q 13 119 14 88 z "},"O":{"ha":706,"x_min":7,"x_max":703,"o":"m 261 6 q 155 56 203 17 q 78 151 107 96 q 31 276 50 207 q 10 415 13 344 q 13 553 8 485 q 44 708 24 646 q 115 831 65 769 q 246 935 176 906 q 379 948 315 964 q 500 886 443 932 q 601 767 557 840 q 668 608 644 694 q 695 452 689 529 q 692 299 701 375 q 654 163 683 224 q 574 59 625 103 q 444 2 522 15 q 261 6 367 -11 m 325 750 q 275 709 294 746 q 250 622 256 672 q 247 523 244 572 q 256 440 249 474 q 305 347 263 386 q 385 344 347 307 q 435 519 435 400 q 389 713 435 638 q 325 750 361 756 z "},"Ò":{"ha":706,"x_min":7,"x_max":703,"o":"m 261 6 q 155 56 203 17 q 78 151 107 96 q 31 276 50 207 q 10 415 13 344 q 13 553 8 485 q 44 708 24 646 q 115 831 65 769 q 246 935 176 906 q 379 948 315 964 q 500 886 443 932 q 601 767 557 840 q 668 608 644 694 q 695 452 689 529 q 692 299 701 375 q 654 163 683 224 q 574 59 625 103 q 444 2 522 15 q 261 6 367 -11 m 325 750 q 275 709 294 746 q 250 622 256 672 q 247 523 244 572 q 256 440 249 474 q 305 347 263 386 q 385 344 347 307 q 435 519 435 400 q 389 713 435 638 q 325 750 361 756 z "},"Ó":{"ha":706,"x_min":7,"x_max":703,"o":"m 261 6 q 155 56 203 17 q 78 151 107 96 q 31 276 50 207 q 10 415 13 344 q 13 553 8 485 q 44 708 24 646 q 115 831 65 769 q 246 935 176 906 q 379 948 315 964 q 500 886 443 932 q 601 767 557 840 q 668 608 644 694 q 695 452 689 529 q 692 299 701 375 q 654 163 683 224 q 574 59 625 103 q 444 2 522 15 q 261 6 367 -11 m 325 750 q 275 709 294 746 q 250 622 256 672 q 247 523 244 572 q 256 440 249 474 q 305 347 263 386 q 385 344 347 307 q 435 519 435 400 q 389 713 435 638 q 325 750 361 756 z "},"Ô":{"ha":706,"x_min":7,"x_max":703,"o":"m 261 6 q 155 56 203 17 q 78 151 107 96 q 31 276 50 207 q 10 415 13 344 q 13 553 8 485 q 44 708 24 646 q 115 831 65 769 q 246 935 176 906 q 379 948 315 964 q 500 886 443 932 q 601 767 557 840 q 668 608 644 694 q 695 452 689 529 q 692 299 701 375 q 654 163 683 224 q 574 59 625 103 q 444 2 522 15 q 261 6 367 -11 m 325 750 q 275 709 294 746 q 250 622 256 672 q 247 523 244 572 q 256 440 249 474 q 305 347 263 386 q 385 344 347 307 q 435 519 435 400 q 389 713 435 638 q 325 750 361 756 z "},"Õ":{"ha":706,"x_min":7,"x_max":703,"o":"m 261 6 q 155 56 203 17 q 78 151 107 96 q 31 276 50 207 q 10 415 13 344 q 13 553 8 485 q 44 708 24 646 q 115 831 65 769 q 246 935 176 906 q 379 948 315 964 q 500 886 443 932 q 601 767 557 840 q 668 608 644 694 q 695 452 689 529 q 692 299 701 375 q 654 163 683 224 q 574 59 625 103 q 444 2 522 15 q 261 6 367 -11 m 325 750 q 275 709 294 746 q 250 622 256 672 q 247 523 244 572 q 256 440 249 474 q 305 347 263 386 q 385 344 347 307 q 435 519 435 400 q 389 713 435 638 q 325 750 361 756 z "},"Ö":{"ha":706,"x_min":7,"x_max":703,"o":"m 261 6 q 155 56 203 17 q 78 151 107 96 q 31 276 50 207 q 10 415 13 344 q 13 553 8 485 q 44 708 24 646 q 115 831 65 769 q 246 935 176 906 q 379 948 315 964 q 500 886 443 932 q 601 767 557 840 q 668 608 644 694 q 695 452 689 529 q 692 299 701 375 q 654 163 683 224 q 574 59 625 103 q 444 2 522 15 q 261 6 367 -11 m 325 750 q 275 709 294 746 q 250 622 256 672 q 247 523 244 572 q 256 440 249 474 q 305 347 263 386 q 385 344 347 307 q 435 519 435 400 q 389 713 435 638 q 325 750 361 756 z "},"Ø":{"ha":706,"x_min":7,"x_max":703,"o":"m 261 6 q 155 56 203 17 q 78 151 107 96 q 31 276 50 207 q 10 415 13 344 q 13 553 8 485 q 44 708 24 646 q 115 831 65 769 q 246 935 176 906 q 379 948 315 964 q 500 886 443 932 q 601 767 557 840 q 668 608 644 694 q 695 452 689 529 q 692 299 701 375 q 654 163 683 224 q 574 59 625 103 q 444 2 522 15 q 261 6 367 -11 m 325 750 q 275 709 294 746 q 250 622 256 672 q 247 523 244 572 q 256 440 249 474 q 305 347 263 386 q 385 344 347 307 q 435 519 435 400 q 389 713 435 638 q 325 750 361 756 z "},"P":{"ha":633,"x_min":11,"x_max":643,"o":"m 160 -15 q 43 3 67 -15 q 18 138 13 28 q 40 408 19 165 q 49 735 64 618 q 44 764 47 747 q 40 793 40 781 q 39 822 39 806 q 68 894 42 874 q 138 913 89 913 q 238 917 168 914 q 343 921 307 921 q 558 858 486 918 q 635 707 631 799 q 596 519 642 599 q 469 400 550 440 q 281 350 389 360 q 299 208 283 304 q 314 76 314 113 q 288 23 313 44 q 231 -7 264 1 q 160 -15 199 -15 m 278 571 q 279 561 276 564 q 288 560 282 558 q 304 567 294 561 q 365 701 397 632 q 313 749 347 740 q 281 725 283 754 q 281 655 281 717 q 278 571 282 593 z "},"Q":{"ha":704,"x_min":1,"x_max":700,"o":"m 258 108 q 167 143 208 117 q 98 208 126 169 q 49 297 69 247 q 19 399 28 346 q 6 506 10 451 q 10 613 3 561 q 42 755 21 699 q 113 868 63 811 q 243 965 174 938 q 376 976 313 992 q 497 919 439 961 q 597 810 554 876 q 664 663 640 743 q 695 479 692 569 q 672 305 699 389 q 586 169 644 221 l 636 97 q 660 24 668 51 q 631 -11 654 7 q 554 -57 596 -39 q 499 -61 518 -72 q 472 -26 483 -54 q 449 35 465 -8 q 422 101 433 79 q 258 108 349 93 m 329 763 q 276 698 293 754 q 262 581 260 642 q 276 479 264 521 q 301 423 281 450 q 347 387 321 396 q 397 403 372 378 q 438 565 442 460 q 389 733 435 669 q 329 763 363 771 z "},"R":{"ha":688,"x_min":18,"x_max":701,"o":"m 167 26 q 57 51 88 25 q 23 149 26 76 q 32 351 19 222 q 39 454 36 417 q 39 788 57 669 q 28 901 26 875 q 54 976 28 954 q 131 999 78 997 q 358 983 279 1004 q 505 919 449 960 q 578 831 561 878 q 592 734 594 785 q 566 638 589 683 q 515 556 543 592 q 457 501 486 521 q 447 451 428 482 q 522 358 476 408 q 591 293 557 321 q 644 254 625 265 q 676 228 663 243 q 694 196 690 214 q 678 124 700 165 q 621 53 657 83 q 553 18 585 22 q 465 31 492 11 q 422 100 439 51 q 359 261 407 142 q 290 443 311 381 q 303 339 293 408 q 318 217 313 269 q 321 133 324 164 q 167 26 310 29 m 271 799 q 274 726 271 788 q 274 639 276 665 q 278 620 272 626 q 299 622 285 614 q 356 774 389 696 q 303 824 339 815 q 271 799 272 832 z "},"S":{"ha":669,"x_min":-1,"x_max":668,"o":"m 140 10 q 32 60 64 22 q 11 169 0 97 q 58 332 24 246 q 161 396 86 400 q 177 393 169 394 q 191 390 185 392 q 205 382 197 388 q 217 374 213 376 q 229 363 221 371 q 240 353 238 356 q 252 340 243 350 q 263 328 261 331 q 274 313 265 325 q 286 300 283 301 q 424 215 342 231 q 454 222 447 210 q 453 250 461 233 q 189 483 421 331 q 51 608 99 535 q 32 772 4 681 q 71 844 44 811 q 356 972 160 956 q 478 967 428 979 q 582 906 546 951 q 617 808 613 867 q 604 703 622 749 q 574 651 593 672 q 514 622 550 625 q 451 628 478 619 q 404 651 425 638 q 334 724 374 671 q 271 794 294 776 q 242 800 257 804 q 217 781 226 796 q 207 740 206 760 q 225 696 208 719 q 262 651 242 672 q 310 608 282 631 q 363 569 339 586 q 413 538 388 553 q 463 508 447 517 q 510 477 478 499 q 558 442 543 456 q 598 406 574 429 q 633 365 622 383 q 655 319 643 346 q 667 268 667 293 q 661 212 667 243 q 640 147 656 181 q 347 6 588 29 q 140 10 242 -6 z "},"T":{"ha":689,"x_min":-15,"x_max":697,"o":"m 65 588 q 6 652 26 594 q -7 770 -14 710 q 26 846 0 831 q 264 907 106 893 q 551 899 422 921 q 697 778 697 875 q 686 681 697 738 q 641 626 679 640 q 544 629 603 611 q 532 634 542 631 q 516 640 522 638 q 500 644 510 642 q 483 647 490 647 q 469 647 476 647 q 456 642 461 646 q 450 631 451 638 q 456 550 443 606 q 496 330 475 469 q 526 97 517 190 q 526 30 531 57 q 505 -11 521 3 q 474 -31 489 -25 q 431 -43 458 -37 q 348 -49 393 -49 q 263 -34 303 -50 q 218 13 222 -18 q 215 127 210 47 q 226 261 219 207 q 243 405 232 315 q 258 547 254 494 q 244 616 263 596 q 197 621 226 636 q 163 609 192 619 q 108 592 135 599 q 65 588 82 585 z "},"U":{"ha":661,"x_min":1,"x_max":643,"o":"m 68 203 q 22 392 31 271 q 51 854 1 671 q 66 878 56 868 q 91 894 76 889 q 121 896 106 899 q 249 846 178 885 q 288 810 279 828 q 289 765 293 794 q 276 679 285 732 q 260 588 267 626 q 249 503 254 550 q 245 411 244 456 q 251 325 246 367 q 299 251 261 261 q 318 251 311 247 q 328 260 324 254 q 344 292 340 276 q 349 350 347 308 q 315 865 361 568 q 319 915 314 900 q 363 958 332 949 q 449 968 374 963 q 512 974 482 971 q 561 978 542 976 q 635 956 619 982 q 642 928 643 942 q 635 701 633 829 q 640 508 638 572 q 629 364 642 444 q 536 157 597 229 q 440 85 497 111 q 230 73 338 39 q 68 203 122 107 z "},"Ù":{"ha":661,"x_min":1,"x_max":643,"o":"m 68 203 q 22 392 31 271 q 51 854 1 671 q 66 878 56 868 q 91 894 76 889 q 121 896 106 899 q 249 846 178 885 q 288 810 279 828 q 289 765 293 794 q 276 679 285 732 q 260 588 267 626 q 249 503 254 550 q 245 411 244 456 q 251 325 246 367 q 299 251 261 261 q 318 251 311 247 q 328 260 324 254 q 344 292 340 276 q 349 350 347 308 q 315 865 361 568 q 319 915 314 900 q 363 958 332 949 q 449 968 374 963 q 512 974 482 971 q 561 978 542 976 q 635 956 619 982 q 642 928 643 942 q 635 701 633 829 q 640 508 638 572 q 629 364 642 444 q 536 157 597 229 q 440 85 497 111 q 230 73 338 39 q 68 203 122 107 z "},"Ú":{"ha":661,"x_min":1,"x_max":643,"o":"m 68 203 q 22 392 31 271 q 51 854 1 671 q 66 878 56 868 q 91 894 76 889 q 121 896 106 899 q 249 846 178 885 q 288 810 279 828 q 289 765 293 794 q 276 679 285 732 q 260 588 267 626 q 249 503 254 550 q 245 411 244 456 q 251 325 246 367 q 299 251 261 261 q 318 251 311 247 q 328 260 324 254 q 344 292 340 276 q 349 350 347 308 q 315 865 361 568 q 319 915 314 900 q 363 958 332 949 q 449 968 374 963 q 512 974 482 971 q 561 978 542 976 q 635 956 619 982 q 642 928 643 942 q 635 701 633 829 q 640 508 638 572 q 629 364 642 444 q 536 157 597 229 q 440 85 497 111 q 230 73 338 39 q 68 203 122 107 z "},"Û":{"ha":661,"x_min":1,"x_max":643,"o":"m 68 203 q 22 392 31 271 q 51 854 1 671 q 66 878 56 868 q 91 894 76 889 q 121 896 106 899 q 249 846 178 885 q 288 810 279 828 q 289 765 293 794 q 276 679 285 732 q 260 588 267 626 q 249 503 254 550 q 245 411 244 456 q 251 325 246 367 q 299 251 261 261 q 318 251 311 247 q 328 260 324 254 q 344 292 340 276 q 349 350 347 308 q 315 865 361 568 q 319 915 314 900 q 363 958 332 949 q 449 968 374 963 q 512 974 482 971 q 561 978 542 976 q 635 956 619 982 q 642 928 643 942 q 635 701 633 829 q 640 508 638 572 q 629 364 642 444 q 536 157 597 229 q 440 85 497 111 q 230 73 338 39 q 68 203 122 107 z "},"Ü":{"ha":661,"x_min":1,"x_max":643,"o":"m 68 203 q 22 392 31 271 q 51 854 1 671 q 66 878 56 868 q 91 894 76 889 q 121 896 106 899 q 249 846 178 885 q 288 810 279 828 q 289 765 293 794 q 276 679 285 732 q 260 588 267 626 q 249 503 254 550 q 245 411 244 456 q 251 325 246 367 q 299 251 261 261 q 318 251 311 247 q 328 260 324 254 q 344 292 340 276 q 349 350 347 308 q 315 865 361 568 q 319 915 314 900 q 363 958 332 949 q 449 968 374 963 q 512 974 482 971 q 561 978 542 976 q 635 956 619 982 q 642 928 643 942 q 635 701 633 829 q 640 508 638 572 q 629 364 642 444 q 536 157 597 229 q 440 85 497 111 q 230 73 338 39 q 68 203 122 107 z "},"V":{"ha":740,"x_min":-7,"x_max":749,"o":"m 147 218 q 83 466 121 300 q 26 690 44 632 q 19 714 24 700 q 10 738 14 728 q 1 761 6 749 q -4 783 -3 774 q -5 801 -6 792 q -1 817 -4 810 q 113 910 31 868 q 249 919 214 963 q 260 890 257 908 q 292 708 269 832 q 326 521 315 585 q 343 381 338 446 q 359 281 347 336 q 378 221 371 225 q 403 360 389 256 q 424 672 421 490 q 425 832 426 813 q 424 840 425 835 q 428 891 421 879 q 472 915 435 903 q 664 922 531 933 q 707 911 693 921 q 740 846 735 894 q 722 685 749 785 q 669 522 704 614 q 593 274 636 436 q 531 54 550 113 q 478 -25 510 -8 q 458 -31 469 -29 q 439 -33 446 -33 q 415 -33 432 -33 q 394 -32 397 -32 q 362 -31 376 -31 q 329 -31 347 -32 q 297 -25 311 -29 q 201 76 242 -7 q 147 218 176 126 z "},"W":{"ha":1117,"x_min":-19,"x_max":1119,"o":"m 136 375 q 17 706 94 481 q 0 850 -18 806 q 35 887 7 867 q 98 920 63 907 q 169 939 133 933 q 231 934 204 944 q 263 896 257 924 q 294 733 271 843 q 326 564 317 622 q 351 415 335 508 q 376 296 368 321 q 401 419 388 328 q 413 490 404 443 q 425 570 421 538 q 431 636 429 603 q 469 674 432 664 q 603 688 515 686 q 649 658 640 688 q 715 437 671 575 q 763 296 758 299 q 783 446 771 317 q 797 707 796 575 q 795 767 797 725 q 793 838 793 808 q 797 901 793 868 q 817 953 801 933 q 858 979 832 974 q 1040 976 960 989 q 1090 951 1069 971 q 1115 903 1110 931 q 1119 855 1118 879 q 1116 806 1119 831 q 1108 759 1113 781 q 1096 710 1104 738 q 1082 665 1088 683 q 1066 617 1076 647 q 1051 572 1056 588 q 913 122 968 313 q 861 25 889 38 q 841 19 853 21 q 822 18 829 18 q 799 19 815 18 q 779 19 783 19 q 747 19 761 19 q 716 20 733 19 q 685 25 699 21 q 657 49 669 31 q 639 84 644 67 q 626 130 633 101 q 618 165 619 158 q 551 404 607 200 q 538 303 549 383 q 519 168 528 222 q 517 149 519 167 q 513 126 514 132 q 507 107 511 119 q 497 88 503 94 q 483 76 490 81 q 394 63 456 65 q 370 60 386 61 q 343 58 354 58 q 318 57 332 57 q 293 58 304 57 q 274 63 282 60 q 224 121 246 72 q 175 256 201 169 q 136 375 149 342 z "},"X":{"ha":715,"x_min":-6,"x_max":721,"o":"m 72 211 q 131 302 92 243 q 188 393 169 361 q 212 436 196 408 q 236 478 228 464 q 214 510 221 501 q 154 584 199 531 q 84 670 110 638 q 35 742 58 703 q 14 806 13 782 q 40 848 14 821 q 85 885 65 875 q 133 905 113 900 q 170 901 153 910 q 199 882 188 893 q 232 846 211 871 q 350 672 288 778 q 413 781 392 744 q 427 808 417 788 q 444 838 438 828 q 461 863 450 849 q 485 884 472 876 q 511 894 497 892 q 571 882 542 900 q 603 865 583 874 q 641 847 622 856 q 672 829 660 838 q 693 801 688 818 q 690 765 699 783 q 658 719 683 749 q 624 678 632 689 q 476 442 546 565 q 593 275 506 388 q 711 94 681 163 q 715 63 719 75 q 689 33 710 51 q 629 9 675 21 q 535 0 583 -3 q 474 28 486 3 q 371 226 436 93 q 315 88 340 154 q 308 65 311 74 q 298 47 304 57 q 284 28 292 36 q 268 14 276 19 q 214 3 253 7 q 135 2 200 -1 q 35 18 71 6 q -1 57 3 28 q 19 121 -4 86 q 72 211 32 140 z "},"Y":{"ha":674,"x_min":-22,"x_max":690,"o":"m 194 593 q 107 702 133 668 q 40 801 81 736 q -14 911 -1 865 q 24 971 -21 935 q 80 1012 58 1000 q 126 1019 101 1024 q 175 988 151 1015 q 224 920 197 963 q 291 812 251 878 q 335 739 331 746 q 365 811 344 758 q 394 885 385 864 q 409 914 399 893 q 426 947 419 935 q 442 974 432 958 q 465 998 453 989 q 493 1011 478 1007 q 510 1013 497 1014 q 526 1011 522 1011 q 543 1008 531 1011 q 560 1004 556 1006 q 668 971 625 992 q 688 939 688 961 q 625 792 689 896 q 618 782 621 785 q 542 683 597 747 q 478 606 488 619 q 458 551 458 582 q 460 469 458 507 q 467 347 461 429 q 475 232 474 265 q 472 135 476 199 q 465 92 468 106 q 454 65 463 79 q 429 44 446 50 q 386 35 413 39 q 317 32 360 32 q 208 58 238 32 q 176 158 178 85 q 189 360 174 231 q 199 463 194 426 q 207 554 204 514 q 194 593 208 575 z "},"Ý":{"ha":674,"x_min":-22,"x_max":690,"o":"m 194 593 q 107 702 133 668 q 40 801 81 736 q -14 911 -1 865 q 24 971 -21 935 q 80 1012 58 1000 q 126 1019 101 1024 q 175 988 151 1015 q 224 920 197 963 q 291 812 251 878 q 335 739 331 746 q 365 811 344 758 q 394 885 385 864 q 409 914 399 893 q 426 947 419 935 q 442 974 432 958 q 465 998 453 989 q 493 1011 478 1007 q 510 1013 497 1014 q 526 1011 522 1011 q 543 1008 531 1011 q 560 1004 556 1006 q 668 971 625 992 q 688 939 688 961 q 625 792 689 896 q 618 782 621 785 q 542 683 597 747 q 478 606 488 619 q 458 551 458 582 q 460 469 458 507 q 467 347 461 429 q 475 232 474 265 q 472 135 476 199 q 465 92 468 106 q 454 65 463 79 q 429 44 446 50 q 386 35 413 39 q 317 32 360 32 q 208 58 238 32 q 176 158 178 85 q 189 360 174 231 q 199 463 194 426 q 207 554 204 514 q 194 593 208 575 z "},"Ÿ":{"ha":674,"x_min":-22,"x_max":690,"o":"m 194 593 q 107 702 133 668 q 40 801 81 736 q -14 911 -1 865 q 24 971 -21 935 q 80 1012 58 1000 q 126 1019 101 1024 q 175 988 151 1015 q 224 920 197 963 q 291 812 251 878 q 335 739 331 746 q 365 811 344 758 q 394 885 385 864 q 409 914 399 893 q 426 947 419 935 q 442 974 432 958 q 465 998 453 989 q 493 1011 478 1007 q 510 1013 497 1014 q 526 1011 522 1011 q 543 1008 531 1011 q 560 1004 556 1006 q 668 971 625 992 q 688 939 688 961 q 625 792 689 896 q 618 782 621 785 q 542 683 597 747 q 478 606 488 619 q 458 551 458 582 q 460 469 458 507 q 467 347 461 429 q 475 232 474 265 q 472 135 476 199 q 465 92 468 106 q 454 65 463 79 q 429 44 446 50 q 386 35 413 39 q 317 32 360 32 q 208 58 238 32 q 176 158 178 85 q 189 360 174 231 q 199 463 194 426 q 207 554 204 514 q 194 593 208 575 z "},"Z":{"ha":735,"x_min":7,"x_max":744,"o":"m 39 64 q 8 251 13 156 q 11 285 8 274 q 36 325 18 311 q 79 358 60 343 q 115 388 99 374 q 143 413 131 401 q 169 437 156 424 q 194 461 183 450 q 223 488 206 472 q 254 518 240 504 q 360 638 301 564 q 435 725 418 713 q 324 710 371 721 q 249 688 276 700 q 199 665 221 676 q 149 644 176 654 q 89 629 121 633 q 65 638 74 628 q 50 671 56 647 q 42 715 44 694 q 36 772 39 736 q 31 826 33 808 q 30 876 25 853 q 61 915 35 900 q 109 926 75 924 q 192 927 143 928 q 253 926 240 926 q 393 928 278 928 q 571 933 508 929 q 615 935 594 938 q 653 910 635 932 q 717 822 663 899 q 721 744 743 785 q 710 726 713 729 q 628 635 675 689 q 547 542 581 581 q 461 451 514 504 q 349 347 408 399 q 343 333 340 339 q 356 331 346 329 q 477 344 414 339 q 599 357 540 349 q 675 339 658 367 q 711 107 683 326 q 707 67 713 88 q 685 34 701 47 q 649 22 669 21 q 508 32 597 25 q 363 42 418 39 q 228 44 308 46 q 71 35 147 43 q 48 41 54 32 q 39 64 42 50 z "},"[":{"ha":494,"x_min":32,"x_max":425,"o":"m 424 43 l 424 6 q 420 -7 424 -1 q 410 -17 417 -12 q 397 -22 404 -21 q 326 -24 379 -24 q 207 -22 269 -22 q 182 -22 207 -22 q 124 -22 157 -22 q 78 -22 90 -22 q 55 -13 65 -22 q 42 10 44 -4 q 37 129 36 58 q 46 450 38 200 q 40 818 49 533 q 37 874 39 826 q 35 946 35 921 q 34 969 35 954 q 33 994 33 985 q 35 1015 33 1004 q 43 1033 38 1026 q 56 1044 47 1040 q 68 1048 64 1047 q 86 1049 72 1049 q 100 1049 100 1049 q 386 1057 207 1054 q 410 1049 400 1057 q 419 1029 419 1040 l 419 992 q 412 974 419 982 q 392 964 404 965 q 349 962 376 963 q 301 963 321 961 l 281 963 q 285 901 285 915 q 287 811 286 861 q 287 717 288 761 q 285 603 286 674 q 285 474 285 533 q 285 351 286 424 q 285 233 285 278 q 288 146 285 189 q 288 107 288 139 q 288 67 288 75 q 392 71 357 69 q 414 63 404 71 q 424 43 424 54 z "},"\\":{"ha":717,"x_min":69,"x_max":663,"o":"m 644 124 q 610 54 661 93 q 486 17 547 6 q 421 72 440 25 q 348 259 393 143 q 276 442 303 375 q 208 599 250 510 q 122 764 167 688 q 79 849 94 810 q 70 893 69 875 q 75 917 71 911 q 94 940 79 924 q 126 964 108 953 q 165 983 144 975 q 204 990 186 992 q 231 972 222 988 q 476 506 360 742 q 644 124 592 269 z "},"]":{"ha":494,"x_min":68,"x_max":461,"o":"m 458 86 q 459 63 458 78 q 460 38 460 47 q 458 17 460 28 q 450 -1 456 6 q 438 -12 446 -8 q 425 -16 429 -15 q 408 -17 421 -17 q 393 -17 394 -17 q 107 -25 286 -21 q 84 -17 93 -25 q 75 3 75 -8 l 75 40 q 78 53 75 47 q 88 63 82 58 q 101 68 94 67 q 144 70 117 69 q 192 69 172 71 l 213 69 q 208 131 210 117 q 208 515 207 189 q 207 886 208 842 q 206 925 206 893 q 206 965 206 957 q 101 961 136 963 q 79 969 89 961 q 69 989 69 978 l 69 1026 q 77 1044 69 1036 q 97 1054 85 1053 q 167 1056 115 1057 q 286 1054 225 1054 q 312 1054 288 1054 q 370 1054 336 1054 q 415 1054 404 1054 q 439 1045 429 1054 q 451 1022 449 1036 q 456 903 457 974 q 449 582 456 832 q 454 214 444 499 q 456 158 454 204 q 458 86 458 111 z "},"^":{"ha":404,"x_min":15,"x_max":389,"o":"m 379 681 q 375 638 388 650 q 351 629 369 631 q 254 622 297 621 q 231 628 239 624 q 218 689 210 640 q 217 846 232 768 q 194 815 201 843 q 158 669 175 743 q 144 638 153 646 q 76 633 129 625 q 19 653 22 640 q 21 681 17 664 q 36 719 25 697 q 47 744 47 742 q 139 965 113 913 q 165 996 151 989 q 193 999 175 999 q 215 998 203 999 q 238 997 226 997 q 258 997 249 997 q 282 993 275 997 q 303 958 294 986 l 379 681 z "},"_":{"ha":689,"x_min":14,"x_max":669,"o":"m 668 93 l 668 31 q 660 13 668 21 q 642 4 653 6 q 544 3 619 1 q 88 0 260 8 q 26 26 39 0 q 25 100 14 51 q 38 122 28 114 q 64 128 49 131 q 467 114 326 108 q 503 115 469 114 q 574 118 538 117 q 636 119 611 119 q 658 112 649 119 q 668 93 668 104 z "},"`":{"ha":215,"x_min":3,"x_max":193,"o":"m 186 992 q 189 985 188 989 q 191 978 190 982 q 192 972 192 975 q 193 964 193 969 q 192 956 193 958 q 191 946 192 953 q 190 936 190 939 q 188 924 189 933 q 186 911 186 915 q 167 796 171 817 q 165 781 165 792 q 162 764 164 769 q 153 754 160 758 q 119 745 140 747 q 92 747 99 743 q 61 810 78 758 q 33 1006 4 988 q 113 1015 54 1019 q 186 992 172 1010 z "},"a":{"ha":594,"x_min":3,"x_max":576,"o":"m 572 174 q 575 42 575 125 q 540 -5 575 11 q 465 -19 504 -21 q 397 -12 425 -17 q 357 57 360 -4 q 272 -6 313 8 q 193 -11 243 -15 q 59 36 107 -14 q 7 161 11 86 q 38 292 4 229 q 138 386 72 356 q 192 407 168 400 q 242 417 215 414 q 295 410 269 419 q 344 378 321 400 q 354 526 368 499 q 317 533 344 546 q 249 483 293 522 q 171 431 213 453 q 151 422 158 424 q 131 426 142 422 q 69 496 93 443 q 68 628 29 589 q 226 706 121 682 q 392 721 300 722 q 497 694 463 721 q 544 589 533 668 q 557 467 553 532 l 572 174 m 321 178 q 342 213 336 193 q 338 253 349 233 q 299 271 325 267 q 257 267 274 275 q 224 239 236 258 q 215 197 213 219 q 231 164 217 175 q 249 154 239 157 q 321 178 290 144 z "},"à":{"ha":594,"x_min":3,"x_max":576,"o":"m 572 174 q 575 42 575 125 q 540 -5 575 11 q 465 -19 504 -21 q 397 -12 425 -17 q 357 57 360 -4 q 272 -6 313 8 q 193 -11 243 -15 q 59 36 107 -14 q 7 161 11 86 q 38 292 4 229 q 138 386 72 356 q 192 407 168 400 q 242 417 215 414 q 295 410 269 419 q 344 378 321 400 q 354 526 368 499 q 317 533 344 546 q 249 483 293 522 q 171 431 213 453 q 151 422 158 424 q 131 426 142 422 q 69 496 93 443 q 68 628 29 589 q 226 706 121 682 q 392 721 300 722 q 497 694 463 721 q 544 589 533 668 q 557 467 553 532 l 572 174 m 321 178 q 342 213 336 193 q 338 253 349 233 q 299 271 325 267 q 257 267 274 275 q 224 239 236 258 q 215 197 213 219 q 231 164 217 175 q 249 154 239 157 q 321 178 290 144 z "},"á":{"ha":594,"x_min":3,"x_max":576,"o":"m 572 174 q 575 42 575 125 q 540 -5 575 11 q 465 -19 504 -21 q 397 -12 425 -17 q 357 57 360 -4 q 272 -6 313 8 q 193 -11 243 -15 q 59 36 107 -14 q 7 161 11 86 q 38 292 4 229 q 138 386 72 356 q 192 407 168 400 q 242 417 215 414 q 295 410 269 419 q 344 378 321 400 q 354 526 368 499 q 317 533 344 546 q 249 483 293 522 q 171 431 213 453 q 151 422 158 424 q 131 426 142 422 q 69 496 93 443 q 68 628 29 589 q 226 706 121 682 q 392 721 300 722 q 497 694 463 721 q 544 589 533 668 q 557 467 553 532 l 572 174 m 321 178 q 342 213 336 193 q 338 253 349 233 q 299 271 325 267 q 257 267 274 275 q 224 239 236 258 q 215 197 213 219 q 231 164 217 175 q 249 154 239 157 q 321 178 290 144 z "},"â":{"ha":594,"x_min":3,"x_max":576,"o":"m 572 174 q 575 42 575 125 q 540 -5 575 11 q 465 -19 504 -21 q 397 -12 425 -17 q 357 57 360 -4 q 272 -6 313 8 q 193 -11 243 -15 q 59 36 107 -14 q 7 161 11 86 q 38 292 4 229 q 138 386 72 356 q 192 407 168 400 q 242 417 215 414 q 295 410 269 419 q 344 378 321 400 q 354 526 368 499 q 317 533 344 546 q 249 483 293 522 q 171 431 213 453 q 151 422 158 424 q 131 426 142 422 q 69 496 93 443 q 68 628 29 589 q 226 706 121 682 q 392 721 300 722 q 497 694 463 721 q 544 589 533 668 q 557 467 553 532 l 572 174 m 321 178 q 342 213 336 193 q 338 253 349 233 q 299 271 325 267 q 257 267 274 275 q 224 239 236 258 q 215 197 213 219 q 231 164 217 175 q 249 154 239 157 q 321 178 290 144 z "},"ã":{"ha":594,"x_min":3,"x_max":576,"o":"m 572 174 q 575 42 575 125 q 540 -5 575 11 q 465 -19 504 -21 q 397 -12 425 -17 q 357 57 360 -4 q 272 -6 313 8 q 193 -11 243 -15 q 59 36 107 -14 q 7 161 11 86 q 38 292 4 229 q 138 386 72 356 q 192 407 168 400 q 242 417 215 414 q 295 410 269 419 q 344 378 321 400 q 354 526 368 499 q 317 533 344 546 q 249 483 293 522 q 171 431 213 453 q 151 422 158 424 q 131 426 142 422 q 69 496 93 443 q 68 628 29 589 q 226 706 121 682 q 392 721 300 722 q 497 694 463 721 q 544 589 533 668 q 557 467 553 532 l 572 174 m 321 178 q 342 213 336 193 q 338 253 349 233 q 299 271 325 267 q 257 267 274 275 q 224 239 236 258 q 215 197 213 219 q 231 164 217 175 q 249 154 239 157 q 321 178 290 144 z "},"ä":{"ha":594,"x_min":3,"x_max":576,"o":"m 572 174 q 575 42 575 125 q 540 -5 575 11 q 465 -19 504 -21 q 397 -12 425 -17 q 357 57 360 -4 q 272 -6 313 8 q 193 -11 243 -15 q 59 36 107 -14 q 7 161 11 86 q 38 292 4 229 q 138 386 72 356 q 192 407 168 400 q 242 417 215 414 q 295 410 269 419 q 344 378 321 400 q 354 526 368 499 q 317 533 344 546 q 249 483 293 522 q 171 431 213 453 q 151 422 158 424 q 131 426 142 422 q 69 496 93 443 q 68 628 29 589 q 226 706 121 682 q 392 721 300 722 q 497 694 463 721 q 544 589 533 668 q 557 467 553 532 l 572 174 m 321 178 q 342 213 336 193 q 338 253 349 233 q 299 271 325 267 q 257 267 274 275 q 224 239 236 258 q 215 197 213 219 q 231 164 217 175 q 249 154 239 157 q 321 178 290 144 z "},"å":{"ha":594,"x_min":3,"x_max":576,"o":"m 572 174 q 575 42 575 125 q 540 -5 575 11 q 465 -19 504 -21 q 397 -12 425 -17 q 357 57 360 -4 q 272 -6 313 8 q 193 -11 243 -15 q 59 36 107 -14 q 7 161 11 86 q 38 292 4 229 q 138 386 72 356 q 192 407 168 400 q 242 417 215 414 q 295 410 269 419 q 344 378 321 400 q 354 526 368 499 q 317 533 344 546 q 249 483 293 522 q 171 431 213 453 q 151 422 158 424 q 131 426 142 422 q 69 496 93 443 q 68 628 29 589 q 226 706 121 682 q 392 721 300 722 q 497 694 463 721 q 544 589 533 668 q 557 467 553 532 l 572 174 m 321 178 q 342 213 336 193 q 338 253 349 233 q 299 271 325 267 q 257 267 274 275 q 224 239 236 258 q 215 197 213 219 q 231 164 217 175 q 249 154 239 157 q 321 178 290 144 z "},"b":{"ha":668,"x_min":18,"x_max":682,"o":"m 654 486 q 431 64 681 99 q 283 108 336 56 q 250 68 282 79 q 194 63 232 61 q 144 66 181 64 q 99 68 107 68 q 50 90 69 69 q 22 173 24 119 q 29 318 19 226 q 39 468 39 410 q 40 603 42 538 q 35 727 38 668 q 31 836 33 786 q 32 926 29 886 q 42 995 35 967 q 67 1038 50 1024 q 111 1053 83 1053 q 142 1051 118 1051 q 178 1050 167 1051 q 208 1047 189 1049 q 241 1039 226 1044 q 268 1024 256 1033 q 289 1004 283 1014 q 288 960 296 990 q 254 663 253 831 q 400 749 313 736 q 499 735 451 757 q 578 674 546 714 q 630 584 610 633 q 654 486 650 535 m 263 389 q 319 281 272 279 q 390 349 357 282 q 407 492 433 432 q 357 538 393 525 q 297 524 319 539 q 268 487 274 510 q 260 438 263 464 q 263 389 258 411 z "},"c":{"ha":575,"x_min":1,"x_max":583,"o":"m 321 297 q 394 375 325 372 q 519 325 460 379 q 563 203 583 267 q 525 118 554 157 q 454 54 496 79 q 272 11 378 8 q 135 44 193 8 q 51 140 78 81 q 13 273 24 199 q 18 424 3 347 q 63 569 33 501 q 142 688 92 638 q 253 757 192 739 q 403 752 325 776 q 517 668 482 728 q 538 601 535 636 q 530 539 540 565 q 501 492 519 513 q 458 469 482 472 q 411 476 433 467 q 379 532 392 488 q 347 586 367 576 q 315 590 332 594 q 288 572 299 585 q 258 513 269 554 q 244 342 239 431 q 267 200 249 254 q 272 187 269 192 q 278 177 274 182 q 290 174 283 172 q 300 181 294 175 q 317 215 313 194 q 320 256 322 236 q 321 297 318 275 z "},"ç":{"ha":575,"x_min":1,"x_max":583,"o":"m 321 297 q 394 375 325 372 q 519 325 460 379 q 563 203 583 267 q 525 118 554 157 q 454 54 496 79 q 272 11 378 8 q 135 44 193 8 q 51 140 78 81 q 13 273 24 199 q 18 424 3 347 q 63 569 33 501 q 142 688 92 638 q 253 757 192 739 q 403 752 325 776 q 517 668 482 728 q 538 601 535 636 q 530 539 540 565 q 501 492 519 513 q 458 469 482 472 q 411 476 433 467 q 379 532 392 488 q 347 586 367 576 q 315 590 332 594 q 288 572 299 585 q 258 513 269 554 q 244 342 239 431 q 267 200 249 254 q 272 187 269 192 q 278 177 274 182 q 290 174 283 172 q 300 181 294 175 q 317 215 313 194 q 320 256 322 236 q 321 297 318 275 z "},"d":{"ha":665,"x_min":-3,"x_max":651,"o":"m 646 32 q 628 -27 651 -6 q 564 -53 604 -49 q 492 -58 524 -58 q 432 -54 460 -57 q 408 -35 414 -51 q 403 17 401 -18 q 328 -33 381 -15 q 225 -48 275 -50 q 136 -33 175 -46 q 28 97 60 -1 q 6 286 -3 189 q 61 468 15 383 q 113 542 86 515 q 183 585 139 568 q 291 588 229 603 q 382 533 353 572 q 378 609 381 563 q 375 689 376 656 q 371 760 374 722 q 365 825 368 799 q 386 896 361 874 q 456 911 401 908 q 540 908 517 914 q 586 888 563 903 q 624 747 619 865 q 622 463 629 628 q 621 232 615 297 q 628 168 624 201 q 638 94 632 135 q 646 32 643 54 m 365 238 q 332 390 392 353 q 288 397 308 406 q 254 346 263 388 q 264 206 240 275 q 279 179 271 188 q 308 171 292 169 q 336 183 324 172 q 365 238 356 200 z "},"e":{"ha":582,"x_min":1,"x_max":581,"o":"m 504 354 q 567 309 554 340 q 567 231 581 278 q 548 176 560 200 q 517 133 536 151 q 472 99 499 115 q 290 56 394 53 q 101 117 174 53 q 16 278 29 181 q 24 477 3 375 q 112 663 44 579 q 269 775 179 747 q 369 785 319 785 q 465 760 418 786 q 533 686 511 735 q 532 524 568 611 q 424 392 496 438 q 358 365 393 371 q 302 365 324 360 q 265 378 281 369 q 288 257 249 322 q 343 218 318 204 q 364 263 358 226 q 381 319 369 297 q 406 351 393 342 q 438 363 418 361 q 470 362 457 364 q 504 354 483 360 m 272 518 q 281 486 268 497 q 315 481 293 475 q 383 547 376 496 q 360 607 388 588 q 296 579 326 631 q 274 519 282 554 l 272 518 z "},"è":{"ha":582,"x_min":1,"x_max":581,"o":"m 504 354 q 567 309 554 340 q 567 231 581 278 q 548 176 560 200 q 517 133 536 151 q 472 99 499 115 q 290 56 394 53 q 101 117 174 53 q 16 278 29 181 q 24 477 3 375 q 112 663 44 579 q 269 775 179 747 q 369 785 319 785 q 465 760 418 786 q 533 686 511 735 q 532 524 568 611 q 424 392 496 438 q 358 365 393 371 q 302 365 324 360 q 265 378 281 369 q 288 257 249 322 q 343 218 318 204 q 364 263 358 226 q 381 319 369 297 q 406 351 393 342 q 438 363 418 361 q 470 362 457 364 q 504 354 483 360 m 272 518 q 281 486 268 497 q 315 481 293 475 q 383 547 376 496 q 360 607 388 588 q 296 579 326 631 q 274 519 282 554 l 272 518 z "},"é":{"ha":582,"x_min":1,"x_max":581,"o":"m 504 354 q 567 309 554 340 q 567 231 581 278 q 548 176 560 200 q 517 133 536 151 q 472 99 499 115 q 290 56 394 53 q 101 117 174 53 q 16 278 29 181 q 24 477 3 375 q 112 663 44 579 q 269 775 179 747 q 369 785 319 785 q 465 760 418 786 q 533 686 511 735 q 532 524 568 611 q 424 392 496 438 q 358 365 393 371 q 302 365 324 360 q 265 378 281 369 q 288 257 249 322 q 343 218 318 204 q 364 263 358 226 q 381 319 369 297 q 406 351 393 342 q 438 363 418 361 q 470 362 457 364 q 504 354 483 360 m 272 518 q 281 486 268 497 q 315 481 293 475 q 383 547 376 496 q 360 607 388 588 q 296 579 326 631 q 274 519 282 554 l 272 518 z "},"ê":{"ha":582,"x_min":1,"x_max":581,"o":"m 504 354 q 567 309 554 340 q 567 231 581 278 q 548 176 560 200 q 517 133 536 151 q 472 99 499 115 q 290 56 394 53 q 101 117 174 53 q 16 278 29 181 q 24 477 3 375 q 112 663 44 579 q 269 775 179 747 q 369 785 319 785 q 465 760 418 786 q 533 686 511 735 q 532 524 568 611 q 424 392 496 438 q 358 365 393 371 q 302 365 324 360 q 265 378 281 369 q 288 257 249 322 q 343 218 318 204 q 364 263 358 226 q 381 319 369 297 q 406 351 393 342 q 438 363 418 361 q 470 362 457 364 q 504 354 483 360 m 272 518 q 281 486 268 497 q 315 481 293 475 q 383 547 376 496 q 360 607 388 588 q 296 579 326 631 q 274 519 282 554 l 272 518 z "},"ë":{"ha":582,"x_min":1,"x_max":581,"o":"m 504 354 q 567 309 554 340 q 567 231 581 278 q 548 176 560 200 q 517 133 536 151 q 472 99 499 115 q 290 56 394 53 q 101 117 174 53 q 16 278 29 181 q 24 477 3 375 q 112 663 44 579 q 269 775 179 747 q 369 785 319 785 q 465 760 418 786 q 533 686 511 735 q 532 524 568 611 q 424 392 496 438 q 358 365 393 371 q 302 365 324 360 q 265 378 281 369 q 288 257 249 322 q 343 218 318 204 q 364 263 358 226 q 381 319 369 297 q 406 351 393 342 q 438 363 418 361 q 470 362 457 364 q 504 354 483 360 m 272 518 q 281 486 268 497 q 315 481 293 475 q 383 547 376 496 q 360 607 388 588 q 296 579 326 631 q 274 519 282 554 l 272 518 z "},"f":{"ha":407,"x_min":1,"x_max":429,"o":"m 314 763 q 288 771 299 769 q 269 767 276 772 q 258 754 263 761 q 251 734 253 747 q 249 712 250 721 q 249 689 249 703 q 272 692 271 692 q 331 679 314 692 q 354 626 347 665 q 365 551 363 585 q 365 540 367 546 q 356 530 363 535 q 340 524 350 525 q 269 519 329 522 q 297 369 276 472 q 326 197 317 265 q 329 86 335 128 q 293 33 324 51 q 226 10 264 18 q 153 5 188 3 q 94 26 118 7 q 72 81 71 46 q 71 152 72 104 q 68 224 69 200 q 65 521 63 417 q 52 521 63 521 q 36 522 42 521 q 21 526 25 522 q 13 540 15 531 q 3 595 4 564 q 15 655 3 626 q 51 688 26 683 q 76 690 63 689 q 85 760 81 728 q 165 926 104 886 q 318 961 224 967 q 391 945 354 958 q 428 908 428 932 q 421 855 428 885 q 400 795 414 825 q 365 756 386 765 q 314 763 343 746 z "},"g":{"ha":661,"x_min":-24,"x_max":636,"o":"m 635 290 q 635 220 636 257 q 631 150 633 183 q 620 81 628 117 q 599 15 613 46 q 454 -157 550 -96 q 228 -211 358 -218 q 192 -208 203 -210 q 163 -203 181 -207 q 135 -191 144 -199 q 116 -169 126 -183 q 100 -135 106 -156 q 83 -41 88 -97 q 92 69 78 15 q 146 124 107 122 q 199 112 171 125 q 250 83 228 99 q 295 58 272 68 q 342 56 318 47 q 388 99 365 64 q 408 145 401 121 q 413 191 414 169 q 413 239 413 213 q 290 156 372 182 q 129 156 208 129 q 58 207 86 168 q 21 290 31 246 q 75 667 -24 500 q 221 790 128 753 q 386 783 317 828 q 449 783 415 765 q 522 801 478 800 q 599 786 567 801 q 629 746 632 771 q 623 613 624 676 q 625 506 622 549 q 631 402 628 464 q 635 290 635 340 m 374 422 q 388 506 390 451 q 363 592 386 561 q 322 608 343 613 q 285 584 301 603 q 263 546 268 565 q 261 464 253 511 q 294 388 269 411 q 310 378 303 381 q 336 381 322 374 q 374 422 360 392 z "},"h":{"ha":644,"x_min":11,"x_max":636,"o":"m 576 626 q 608 409 582 544 q 635 196 633 274 q 626 138 635 158 q 609 113 619 122 q 581 99 599 103 q 551 92 563 94 q 515 93 540 90 q 482 97 489 96 q 447 101 475 97 q 392 128 415 107 q 365 181 369 150 q 364 182 364 181 q 369 278 360 210 q 383 444 381 360 q 375 521 385 494 q 339 554 363 551 q 307 540 322 556 q 272 425 271 508 q 292 249 274 336 q 301 197 299 215 q 299 152 303 179 q 282 107 296 125 q 211 71 258 76 q 104 75 171 67 q 31 110 47 83 q 22 174 18 129 q 31 240 25 194 q 39 311 36 286 q 45 377 42 336 q 49 448 49 418 q 50 514 50 478 q 47 583 50 550 q 36 675 44 622 q 22 762 28 728 q 14 849 17 796 q 19 940 11 901 q 56 1014 22 982 q 126 1046 82 1040 q 288 985 288 1068 q 283 946 288 981 q 282 697 257 697 q 290 701 286 696 q 354 746 317 731 q 431 758 392 761 q 556 692 515 751 q 576 626 574 665 z "},"i":{"ha":299,"x_min":13,"x_max":289,"o":"m 271 233 q 283 104 288 154 q 233 32 278 53 q 136 22 203 18 q 31 67 51 28 q 22 135 19 88 q 28 224 24 163 q 35 319 33 286 q 38 403 36 351 q 36 505 39 456 q 26 608 33 554 q 89 724 14 706 q 137 729 113 729 q 185 724 161 729 q 226 703 208 718 q 250 663 243 688 q 256 613 256 639 q 253 551 256 586 q 249 500 250 515 q 271 233 249 338 m 143 761 q 69 802 100 768 q 36 885 38 836 q 65 976 38 942 q 124 1015 92 1011 q 190 996 157 1018 q 233 929 222 974 q 228 804 254 858 q 143 761 203 750 z "},"ì":{"ha":299,"x_min":13,"x_max":289,"o":"m 271 233 q 283 104 288 154 q 233 32 278 53 q 136 22 203 18 q 31 67 51 28 q 22 135 19 88 q 28 224 24 163 q 35 319 33 286 q 38 403 36 351 q 36 505 39 456 q 26 608 33 554 q 89 724 14 706 q 137 729 113 729 q 185 724 161 729 q 226 703 208 718 q 250 663 243 688 q 256 613 256 639 q 253 551 256 586 q 249 500 250 515 q 271 233 249 338 m 143 761 q 69 802 100 768 q 36 885 38 836 q 65 976 38 942 q 124 1015 92 1011 q 190 996 157 1018 q 233 929 222 974 q 228 804 254 858 q 143 761 203 750 z "},"í":{"ha":299,"x_min":13,"x_max":289,"o":"m 271 233 q 283 104 288 154 q 233 32 278 53 q 136 22 203 18 q 31 67 51 28 q 22 135 19 88 q 28 224 24 163 q 35 319 33 286 q 38 403 36 351 q 36 505 39 456 q 26 608 33 554 q 89 724 14 706 q 137 729 113 729 q 185 724 161 729 q 226 703 208 718 q 250 663 243 688 q 256 613 256 639 q 253 551 256 586 q 249 500 250 515 q 271 233 249 338 m 143 761 q 69 802 100 768 q 36 885 38 836 q 65 976 38 942 q 124 1015 92 1011 q 190 996 157 1018 q 233 929 222 974 q 228 804 254 858 q 143 761 203 750 z "},"î":{"ha":299,"x_min":13,"x_max":289,"o":"m 271 233 q 283 104 288 154 q 233 32 278 53 q 136 22 203 18 q 31 67 51 28 q 22 135 19 88 q 28 224 24 163 q 35 319 33 286 q 38 403 36 351 q 36 505 39 456 q 26 608 33 554 q 89 724 14 706 q 137 729 113 729 q 185 724 161 729 q 226 703 208 718 q 250 663 243 688 q 256 613 256 639 q 253 551 256 586 q 249 500 250 515 q 271 233 249 338 m 143 761 q 69 802 100 768 q 36 885 38 836 q 65 976 38 942 q 124 1015 92 1011 q 190 996 157 1018 q 233 929 222 974 q 228 804 254 858 q 143 761 203 750 z "},"ï":{"ha":299,"x_min":13,"x_max":289,"o":"m 271 233 q 283 104 288 154 q 233 32 278 53 q 136 22 203 18 q 31 67 51 28 q 22 135 19 88 q 28 224 24 163 q 35 319 33 286 q 38 403 36 351 q 36 505 39 456 q 26 608 33 554 q 89 724 14 706 q 137 729 113 729 q 185 724 161 729 q 226 703 208 718 q 250 663 243 688 q 256 613 256 639 q 253 551 256 586 q 249 500 250 515 q 271 233 249 338 m 143 761 q 69 802 100 768 q 36 885 38 836 q 65 976 38 942 q 124 1015 92 1011 q 190 996 157 1018 q 233 929 222 974 q 228 804 254 858 q 143 761 203 750 z "},"j":{"ha":293,"x_min":-189,"x_max":272,"o":"m 258 593 q 272 502 271 556 q 267 362 272 449 q 263 217 263 275 q 242 -86 265 0 q 149 -240 213 -186 q -39 -285 86 -293 q -124 -261 -92 -282 q -172 -190 -156 -240 q -163 -85 -189 -139 q -76 -24 -137 -31 q -8 -10 -33 -19 q 24 4 18 -1 q 38 22 31 10 q 46 44 43 31 q 48 80 49 58 q 47 115 47 101 q 43 156 46 128 q 40 192 40 185 q 22 460 28 361 q 38 619 18 568 q 124 678 57 672 q 194 669 165 681 q 235 640 222 658 q 258 593 247 622 m 128 749 q 53 790 85 756 q 21 871 22 824 q 49 963 22 929 q 109 1001 76 997 q 174 983 142 1006 q 218 917 207 961 q 213 792 238 846 q 128 749 188 738 z "},"k":{"ha":665,"x_min":17,"x_max":678,"o":"m 624 271 q 667 222 656 256 q 663 158 678 189 q 612 92 643 121 q 544 49 581 63 q 461 61 499 31 q 406 134 432 85 q 363 231 379 183 q 322 330 347 278 q 268 410 296 382 q 260 411 265 414 q 257 403 256 408 q 278 328 261 383 q 303 235 294 274 q 315 160 313 196 q 294 75 319 99 q 238 56 278 60 q 53 65 118 39 q 28 86 38 72 q 19 122 19 100 q 19 160 18 143 q 24 206 21 178 q 29 244 28 233 q 26 914 58 610 q 64 1036 17 1004 q 203 1038 111 1068 q 253 988 243 1024 q 250 907 264 951 q 235 747 240 860 q 236 585 229 633 q 242 576 238 578 q 251 579 246 574 q 281 609 267 593 q 303 639 294 625 q 324 672 313 653 q 342 705 335 692 q 360 742 349 718 q 378 778 371 765 q 408 822 394 813 q 474 829 436 842 q 531 794 497 822 q 575 732 572 761 q 538 661 578 703 q 408 526 419 539 q 511 374 436 461 q 624 271 586 288 z "},"l":{"ha":324,"x_min":25,"x_max":308,"o":"m 272 404 q 272 311 267 372 q 280 217 276 250 q 294 111 283 185 q 299 86 294 108 q 303 55 303 64 q 303 31 304 46 q 294 4 301 15 q 243 -27 282 -19 q 167 -32 204 -35 q 117 -15 139 -29 q 83 22 96 -1 q 64 68 71 46 q 51 118 57 90 q 26 490 25 256 q 35 849 28 582 q 54 928 38 906 q 74 947 63 939 q 103 958 86 954 q 131 964 121 963 q 161 968 140 965 q 250 960 217 974 q 294 920 283 947 q 307 856 306 893 q 299 774 308 818 q 288 677 293 729 q 282 593 283 625 q 277 494 281 561 q 272 404 274 428 z "},"m":{"ha":957,"x_min":11,"x_max":951,"o":"m 947 168 q 931 97 951 128 q 868 68 911 67 q 826 67 856 68 q 779 67 797 67 q 735 71 761 67 q 694 83 710 75 q 667 110 679 92 q 651 154 654 128 q 656 250 646 183 q 669 443 667 326 q 661 521 671 494 q 625 553 649 551 q 593 539 608 554 q 558 442 561 510 q 586 317 558 414 q 619 151 614 219 q 592 98 622 117 q 522 78 561 79 q 446 81 482 78 q 388 101 410 83 q 361 150 367 119 q 356 209 356 181 q 364 276 357 238 q 378 443 375 360 q 369 521 379 494 q 333 553 357 551 q 301 539 317 554 q 267 425 265 507 q 286 249 268 336 q 297 212 289 235 q 310 173 304 189 q 315 138 315 157 q 303 106 314 119 q 206 71 282 79 q 99 75 165 65 q 25 108 40 83 q 17 172 13 128 q 25 240 19 194 q 33 310 31 285 q 39 376 35 335 q 44 447 43 417 q 44 513 44 476 q 42 582 44 550 q 39 622 42 596 q 36 658 36 649 q 36 685 36 667 q 40 710 36 704 q 51 728 44 717 q 71 742 58 739 q 101 750 83 746 q 143 754 119 754 q 207 754 190 756 q 251 739 233 751 q 267 711 268 726 l 264 694 q 361 751 308 738 q 417 756 382 758 q 469 742 453 754 q 517 663 503 717 l 529 681 q 601 749 557 722 q 700 775 646 775 q 783 752 739 775 q 847 697 826 729 q 866 656 858 681 q 876 612 874 631 q 883 561 879 593 q 890 518 888 529 q 911 410 896 483 q 937 277 926 338 q 947 168 947 217 z "},"n":{"ha":664,"x_min":11,"x_max":656,"o":"m 597 450 q 628 312 601 432 q 656 126 654 192 q 647 68 656 90 q 607 29 633 35 q 518 22 583 21 q 410 38 453 22 q 358 113 368 53 q 364 208 354 142 q 378 375 375 292 q 369 453 379 426 q 333 485 357 483 q 301 472 317 486 q 267 357 265 439 q 286 181 268 268 q 295 128 293 146 q 294 83 297 111 q 276 38 290 56 q 206 3 253 8 q 99 7 165 -3 q 25 40 40 15 q 17 104 13 60 q 25 172 19 126 q 33 242 31 217 q 39 308 35 267 q 44 378 43 349 q 44 445 44 408 q 42 514 44 482 q 38 612 39 572 q 63 672 38 651 q 150 686 89 692 q 178 685 163 686 q 207 685 193 685 q 232 683 221 685 q 258 669 249 681 q 267 643 268 658 l 264 628 q 338 674 290 656 q 425 689 385 692 q 499 665 464 686 q 554 611 533 644 q 570 583 564 597 q 581 549 576 568 q 587 518 585 529 q 593 482 589 507 q 597 450 597 457 z "},"ñ":{"ha":664,"x_min":11,"x_max":656,"o":"m 597 450 q 628 312 601 432 q 656 126 654 192 q 647 68 656 90 q 607 29 633 35 q 518 22 583 21 q 410 38 453 22 q 358 113 368 53 q 364 208 354 142 q 378 375 375 292 q 369 453 379 426 q 333 485 357 483 q 301 472 317 486 q 267 357 265 439 q 286 181 268 268 q 295 128 293 146 q 294 83 297 111 q 276 38 290 56 q 206 3 253 8 q 99 7 165 -3 q 25 40 40 15 q 17 104 13 60 q 25 172 19 126 q 33 242 31 217 q 39 308 35 267 q 44 378 43 349 q 44 445 44 408 q 42 514 44 482 q 38 612 39 572 q 63 672 38 651 q 150 686 89 692 q 178 685 163 686 q 207 685 193 685 q 232 683 221 685 q 258 669 249 681 q 267 643 268 658 l 264 628 q 338 674 290 656 q 425 689 385 692 q 499 665 464 686 q 554 611 533 644 q 570 583 564 597 q 581 549 576 568 q 587 518 585 529 q 593 482 589 507 q 597 450 597 457 z "},"o":{"ha":633,"x_min":1,"x_max":629,"o":"m 597 544 q 624 401 619 472 q 610 265 629 331 q 547 152 590 199 q 424 85 504 106 q 235 83 344 65 q 93 167 149 97 q 20 325 38 238 q 14 503 3 413 q 42 622 24 575 q 106 715 60 669 q 301 809 203 813 q 480 732 399 806 q 597 544 561 658 m 340 375 q 383 484 382 411 q 347 600 385 557 q 296 621 326 625 q 255 593 271 617 q 233 539 239 569 q 228 478 228 508 q 236 429 229 449 q 273 375 240 396 q 340 375 306 354 z "},"ò":{"ha":633,"x_min":1,"x_max":629,"o":"m 597 544 q 624 401 619 472 q 610 265 629 331 q 547 152 590 199 q 424 85 504 106 q 235 83 344 65 q 93 167 149 97 q 20 325 38 238 q 14 503 3 413 q 42 622 24 575 q 106 715 60 669 q 301 809 203 813 q 480 732 399 806 q 597 544 561 658 m 340 375 q 383 484 382 411 q 347 600 385 557 q 296 621 326 625 q 255 593 271 617 q 233 539 239 569 q 228 478 228 508 q 236 429 229 449 q 273 375 240 396 q 340 375 306 354 z "},"ó":{"ha":633,"x_min":1,"x_max":629,"o":"m 597 544 q 624 401 619 472 q 610 265 629 331 q 547 152 590 199 q 424 85 504 106 q 235 83 344 65 q 93 167 149 97 q 20 325 38 238 q 14 503 3 413 q 42 622 24 575 q 106 715 60 669 q 301 809 203 813 q 480 732 399 806 q 597 544 561 658 m 340 375 q 383 484 382 411 q 347 600 385 557 q 296 621 326 625 q 255 593 271 617 q 233 539 239 569 q 228 478 228 508 q 236 429 229 449 q 273 375 240 396 q 340 375 306 354 z "},"ô":{"ha":633,"x_min":1,"x_max":629,"o":"m 597 544 q 624 401 619 472 q 610 265 629 331 q 547 152 590 199 q 424 85 504 106 q 235 83 344 65 q 93 167 149 97 q 20 325 38 238 q 14 503 3 413 q 42 622 24 575 q 106 715 60 669 q 301 809 203 813 q 480 732 399 806 q 597 544 561 658 m 340 375 q 383 484 382 411 q 347 600 385 557 q 296 621 326 625 q 255 593 271 617 q 233 539 239 569 q 228 478 228 508 q 236 429 229 449 q 273 375 240 396 q 340 375 306 354 z "},"õ":{"ha":633,"x_min":1,"x_max":629,"o":"m 597 544 q 624 401 619 472 q 610 265 629 331 q 547 152 590 199 q 424 85 504 106 q 235 83 344 65 q 93 167 149 97 q 20 325 38 238 q 14 503 3 413 q 42 622 24 575 q 106 715 60 669 q 301 809 203 813 q 480 732 399 806 q 597 544 561 658 m 340 375 q 383 484 382 411 q 347 600 385 557 q 296 621 326 625 q 255 593 271 617 q 233 539 239 569 q 228 478 228 508 q 236 429 229 449 q 273 375 240 396 q 340 375 306 354 z "},"ö":{"ha":633,"x_min":1,"x_max":629,"o":"m 597 544 q 624 401 619 472 q 610 265 629 331 q 547 152 590 199 q 424 85 504 106 q 235 83 344 65 q 93 167 149 97 q 20 325 38 238 q 14 503 3 413 q 42 622 24 575 q 106 715 60 669 q 301 809 203 813 q 480 732 399 806 q 597 544 561 658 m 340 375 q 383 484 382 411 q 347 600 385 557 q 296 621 326 625 q 255 593 271 617 q 233 539 239 569 q 228 478 228 508 q 236 429 229 449 q 273 375 240 396 q 340 375 306 354 z "},"ø":{"ha":633,"x_min":1,"x_max":629,"o":"m 597 544 q 624 401 619 472 q 610 265 629 331 q 547 152 590 199 q 424 85 504 106 q 235 83 344 65 q 93 167 149 97 q 20 325 38 238 q 14 503 3 413 q 42 622 24 575 q 106 715 60 669 q 301 809 203 813 q 480 732 399 806 q 597 544 561 658 m 340 375 q 383 484 382 411 q 347 600 385 557 q 296 621 326 625 q 255 593 271 617 q 233 539 239 569 q 228 478 228 508 q 236 429 229 449 q 273 375 240 396 q 340 375 306 354 z "},"p":{"ha":669,"x_min":7,"x_max":668,"o":"m 425 721 q 563 638 506 704 q 644 489 621 571 q 660 329 667 407 q 621 193 654 251 q 535 107 588 135 q 417 77 483 79 q 279 108 351 75 q 303 -60 286 50 q 324 -203 319 -171 q 307 -262 328 -244 q 274 -276 297 -271 q 86 -275 181 -296 q 28 -237 39 -264 q 25 -196 22 -225 q 18 606 71 207 q 32 667 8 651 q 118 689 56 683 q 159 692 140 692 q 194 683 178 692 q 218 657 211 675 q 425 721 308 744 m 251 324 q 310 254 268 253 q 371 311 349 256 q 383 399 388 350 q 321 542 375 522 q 256 504 282 556 q 251 324 219 435 z "},"q":{"ha":672,"x_min":6,"x_max":660,"o":"m 647 729 q 654 675 658 714 q 646 -153 604 304 q 619 -205 649 -182 q 544 -235 589 -228 q 454 -239 499 -242 q 378 -215 410 -236 q 349 -160 347 -194 q 367 100 356 14 q 192 69 267 57 q 69 158 117 81 q 11 372 22 235 q 17 491 7 431 q 51 608 26 551 q 121 706 75 664 q 228 761 167 747 q 428 700 340 786 q 430 710 428 703 q 433 720 432 718 q 438 728 435 722 q 447 736 442 733 q 460 742 451 739 q 481 747 468 744 q 511 749 494 749 q 590 751 582 753 q 647 729 633 747 m 390 349 q 378 535 421 461 q 313 569 349 585 q 261 451 271 551 q 296 283 251 339 q 360 279 329 242 q 390 349 379 301 z "},"r":{"ha":563,"x_min":18,"x_max":586,"o":"m 551 619 q 547 483 585 579 q 465 375 514 399 q 414 383 436 361 q 394 402 406 390 q 377 419 382 414 q 363 433 372 424 q 349 444 353 442 q 335 451 344 446 q 322 455 326 457 q 308 454 318 453 q 269 418 282 450 q 261 326 256 386 q 288 151 267 238 q 299 100 296 118 q 299 55 301 82 q 283 10 297 28 q 214 -29 261 -22 q 107 -29 174 -36 q 32 1 49 -24 q 22 65 18 21 q 28 144 24 83 q 33 233 32 206 q 37 308 35 260 q 38 397 39 357 q 31 476 36 438 q 23 574 25 533 q 46 634 21 614 q 132 653 71 654 q 174 652 144 651 q 214 651 204 653 q 242 640 232 650 q 250 614 251 629 l 249 597 q 319 654 276 631 q 407 675 361 678 q 551 619 510 671 z "},"s":{"ha":543,"x_min":4,"x_max":536,"o":"m 493 318 q 526 257 517 292 q 533 192 536 222 q 518 133 529 163 q 469 58 499 82 q 378 13 440 33 q 97 -8 243 -33 q 8 92 13 6 q 25 251 6 174 q 114 275 46 307 q 230 228 183 242 q 317 219 276 215 q 313 236 325 224 q 289 257 301 249 q 136 372 215 304 q 75 440 97 406 q 42 551 40 500 q 73 643 43 601 q 147 713 103 685 q 243 756 192 742 q 410 743 346 782 q 490 651 446 721 q 524 592 514 614 q 526 553 532 568 q 500 522 521 539 q 422 490 474 503 q 319 488 369 476 q 292 501 300 493 q 275 532 285 510 q 238 590 256 575 q 210 589 219 606 q 246 507 193 557 q 343 425 276 475 q 405 386 351 419 q 493 318 458 353 z "},"t":{"ha":472,"x_min":-3,"x_max":476,"o":"m 342 346 q 460 275 436 407 q 458 107 476 186 q 456 96 457 100 q 402 59 447 74 q 321 42 357 44 q 167 76 226 36 q 88 243 107 118 q 72 633 81 289 q 36 636 51 633 q 19 643 24 639 q 14 654 17 647 q -1 751 -3 715 q 7 774 -1 768 q 33 782 15 781 q 71 786 44 783 q 75 922 72 831 q 113 986 72 968 q 203 997 153 1004 q 294 969 254 990 q 331 917 326 953 q 331 794 335 885 q 350 794 332 794 q 371 793 368 793 q 392 788 385 792 q 401 763 400 781 q 399 681 404 735 q 393 661 397 667 q 368 650 388 653 q 343 649 364 650 q 319 647 322 649 q 290 376 303 479 q 294 346 288 356 q 342 346 308 328 z "},"u":{"ha":674,"x_min":15,"x_max":656,"o":"m 643 665 q 650 601 656 646 q 642 167 626 376 q 644 88 647 125 q 630 26 640 51 q 592 -10 619 1 q 518 -15 564 -22 q 499 -12 511 -14 q 482 -9 486 -10 q 469 -8 478 -8 q 457 -6 461 -7 q 447 -5 453 -6 q 435 -4 442 -4 q 408 8 418 -3 q 401 36 399 19 l 403 51 q 306 6 379 25 q 190 -10 233 -14 q 144 0 167 -8 q 44 107 72 28 q 21 215 25 164 q 22 310 17 267 q 28 424 26 354 q 22 586 29 493 q 26 619 19 606 q 39 638 32 633 q 58 649 46 643 q 61 650 60 650 q 149 661 88 664 q 257 642 210 658 q 308 571 299 628 q 307 494 314 536 q 297 448 304 475 q 282 399 289 421 q 269 352 275 378 q 264 304 264 326 q 276 221 257 256 q 335 194 296 186 q 388 236 371 201 q 400 322 401 267 q 382 525 399 440 q 372 576 375 558 q 373 622 369 594 q 390 667 376 650 q 461 703 414 697 q 568 699 503 708 q 643 665 626 690 z "},"ù":{"ha":674,"x_min":15,"x_max":656,"o":"m 643 665 q 650 601 656 646 q 642 167 626 376 q 644 88 647 125 q 630 26 640 51 q 592 -10 619 1 q 518 -15 564 -22 q 499 -12 511 -14 q 482 -9 486 -10 q 469 -8 478 -8 q 457 -6 461 -7 q 447 -5 453 -6 q 435 -4 442 -4 q 408 8 418 -3 q 401 36 399 19 l 403 51 q 306 6 379 25 q 190 -10 233 -14 q 144 0 167 -8 q 44 107 72 28 q 21 215 25 164 q 22 310 17 267 q 28 424 26 354 q 22 586 29 493 q 26 619 19 606 q 39 638 32 633 q 58 649 46 643 q 61 650 60 650 q 149 661 88 664 q 257 642 210 658 q 308 571 299 628 q 307 494 314 536 q 297 448 304 475 q 282 399 289 421 q 269 352 275 378 q 264 304 264 326 q 276 221 257 256 q 335 194 296 186 q 388 236 371 201 q 400 322 401 267 q 382 525 399 440 q 372 576 375 558 q 373 622 369 594 q 390 667 376 650 q 461 703 414 697 q 568 699 503 708 q 643 665 626 690 z "},"ú":{"ha":674,"x_min":15,"x_max":656,"o":"m 643 665 q 650 601 656 646 q 642 167 626 376 q 644 88 647 125 q 630 26 640 51 q 592 -10 619 1 q 518 -15 564 -22 q 499 -12 511 -14 q 482 -9 486 -10 q 469 -8 478 -8 q 457 -6 461 -7 q 447 -5 453 -6 q 435 -4 442 -4 q 408 8 418 -3 q 401 36 399 19 l 403 51 q 306 6 379 25 q 190 -10 233 -14 q 144 0 167 -8 q 44 107 72 28 q 21 215 25 164 q 22 310 17 267 q 28 424 26 354 q 22 586 29 493 q 26 619 19 606 q 39 638 32 633 q 58 649 46 643 q 61 650 60 650 q 149 661 88 664 q 257 642 210 658 q 308 571 299 628 q 307 494 314 536 q 297 448 304 475 q 282 399 289 421 q 269 352 275 378 q 264 304 264 326 q 276 221 257 256 q 335 194 296 186 q 388 236 371 201 q 400 322 401 267 q 382 525 399 440 q 372 576 375 558 q 373 622 369 594 q 390 667 376 650 q 461 703 414 697 q 568 699 503 708 q 643 665 626 690 z "},"û":{"ha":674,"x_min":15,"x_max":656,"o":"m 643 665 q 650 601 656 646 q 642 167 626 376 q 644 88 647 125 q 630 26 640 51 q 592 -10 619 1 q 518 -15 564 -22 q 499 -12 511 -14 q 482 -9 486 -10 q 469 -8 478 -8 q 457 -6 461 -7 q 447 -5 453 -6 q 435 -4 442 -4 q 408 8 418 -3 q 401 36 399 19 l 403 51 q 306 6 379 25 q 190 -10 233 -14 q 144 0 167 -8 q 44 107 72 28 q 21 215 25 164 q 22 310 17 267 q 28 424 26 354 q 22 586 29 493 q 26 619 19 606 q 39 638 32 633 q 58 649 46 643 q 61 650 60 650 q 149 661 88 664 q 257 642 210 658 q 308 571 299 628 q 307 494 314 536 q 297 448 304 475 q 282 399 289 421 q 269 352 275 378 q 264 304 264 326 q 276 221 257 256 q 335 194 296 186 q 388 236 371 201 q 400 322 401 267 q 382 525 399 440 q 372 576 375 558 q 373 622 369 594 q 390 667 376 650 q 461 703 414 697 q 568 699 503 708 q 643 665 626 690 z "},"ü":{"ha":674,"x_min":15,"x_max":656,"o":"m 643 665 q 650 601 656 646 q 642 167 626 376 q 644 88 647 125 q 630 26 640 51 q 592 -10 619 1 q 518 -15 564 -22 q 499 -12 511 -14 q 482 -9 486 -10 q 469 -8 478 -8 q 457 -6 461 -7 q 447 -5 453 -6 q 435 -4 442 -4 q 408 8 418 -3 q 401 36 399 19 l 403 51 q 306 6 379 25 q 190 -10 233 -14 q 144 0 167 -8 q 44 107 72 28 q 21 215 25 164 q 22 310 17 267 q 28 424 26 354 q 22 586 29 493 q 26 619 19 606 q 39 638 32 633 q 58 649 46 643 q 61 650 60 650 q 149 661 88 664 q 257 642 210 658 q 308 571 299 628 q 307 494 314 536 q 297 448 304 475 q 282 399 289 421 q 269 352 275 378 q 264 304 264 326 q 276 221 257 256 q 335 194 296 186 q 388 236 371 201 q 400 322 401 267 q 382 525 399 440 q 372 576 375 558 q 373 622 369 594 q 390 667 376 650 q 461 703 414 697 q 568 699 503 708 q 643 665 626 690 z "},"v":{"ha":704,"x_min":-7,"x_max":707,"o":"m 689 747 q 703 733 699 743 q 707 708 707 722 q 703 675 707 694 q 693 636 699 656 q 680 593 688 617 q 665 548 672 569 q 650 501 658 526 q 638 456 642 475 q 518 104 582 257 q 468 44 499 57 q 448 40 460 42 q 429 39 436 39 q 406 40 422 39 q 386 40 390 40 q 348 40 368 40 q 303 40 328 39 q 267 44 279 42 q 243 62 256 47 q 220 94 231 76 q 198 139 210 113 q 178 183 186 165 q 162 224 171 200 q 151 250 153 247 q 35 551 96 385 q 24 575 31 560 q 11 602 17 590 q 0 631 6 614 q -6 658 -6 647 q 0 679 -6 668 q 39 715 11 697 q 101 747 67 733 q 169 766 136 760 q 228 764 203 772 q 257 732 253 756 q 305 503 286 583 q 333 393 324 424 q 369 282 343 363 q 406 511 386 354 q 415 688 421 633 q 417 721 414 708 q 431 740 421 733 q 463 750 442 746 q 647 756 535 763 q 689 747 676 754 z "},"w":{"ha":944,"x_min":3,"x_max":947,"o":"m 913 690 q 946 638 947 676 q 893 450 944 583 q 848 303 864 375 q 818 157 832 231 q 785 21 804 83 q 738 -39 767 -26 q 644 -44 718 -46 q 546 -37 569 -43 q 530 -28 538 -36 q 516 -4 522 -19 q 506 22 510 11 q 497 56 503 33 q 490 83 492 78 q 460 213 482 115 q 431 338 439 310 q 419 222 428 315 q 401 85 410 129 q 397 63 401 83 q 388 35 396 47 q 367 13 379 22 q 339 1 354 4 q 288 -7 307 -4 q 235 -11 268 -10 q 183 -8 203 -12 q 145 11 164 -3 q 119 47 126 25 q 11 528 99 122 q 4 585 3 553 q 24 636 6 617 q 63 659 35 647 q 125 678 90 671 q 192 688 160 686 q 247 675 225 689 q 267 633 268 661 q 279 213 253 196 q 294 325 290 296 q 321 518 315 461 q 346 560 322 547 q 444 584 388 583 q 518 553 501 585 q 534 509 525 536 q 552 452 543 482 q 571 390 561 422 q 589 327 581 357 q 604 274 597 297 q 616 235 611 250 q 622 221 621 221 q 653 542 646 413 q 653 587 654 558 q 652 633 651 615 q 658 669 653 650 q 676 699 663 688 q 713 713 689 710 q 814 711 751 717 q 913 690 876 706 z "},"x":{"ha":683,"x_min":-7,"x_max":689,"o":"m 447 431 q 532 331 474 389 q 636 226 590 274 q 688 150 682 178 q 660 110 689 135 q 606 72 632 86 q 508 45 554 46 q 439 78 461 44 q 342 244 403 132 q 288 129 311 185 q 242 69 268 82 q 192 60 226 61 q 33 89 110 50 q 3 117 11 100 q 6 153 -6 133 q 33 189 13 161 q 60 226 53 217 q 167 386 129 329 q 204 440 175 397 q 187 460 204 440 q 152 501 169 479 q 111 553 135 522 q 70 609 88 583 q 42 658 53 635 q 32 693 31 681 q 106 782 36 719 q 176 818 142 815 q 226 792 210 821 q 270 703 249 751 q 304 624 292 654 q 321 590 317 594 q 382 697 349 633 q 394 722 386 704 q 407 750 401 740 q 422 772 413 760 q 442 792 431 785 q 468 801 454 800 q 538 792 481 804 q 563 785 551 789 q 589 774 574 781 q 611 764 604 767 q 583 617 668 740 q 447 431 508 525 z "},"y":{"ha":750,"x_min":11,"x_max":732,"o":"m 718 654 q 699 507 700 589 q 708 358 699 425 q 724 206 718 292 q 725 57 731 121 q 685 -119 718 -35 q 629 -210 661 -182 q 499 -260 588 -246 q 358 -276 446 -269 q 240 -282 299 -283 q 125 -265 182 -281 q 81 -233 94 -256 q 72 -180 68 -211 q 88 -118 76 -149 q 118 -54 100 -87 q 174 20 149 -1 q 235 25 199 42 q 369 -24 299 -4 q 432 -19 407 -35 q 461 28 457 -3 q 464 178 469 93 q 350 99 406 131 q 239 53 294 68 q 140 51 183 39 q 65 101 97 63 q 23 217 33 140 q 22 407 13 293 q 29 470 25 431 q 35 532 33 510 q 40 587 38 554 q 42 651 42 619 q 51 681 38 669 q 86 690 63 689 q 243 663 167 693 q 290 632 276 649 q 304 515 321 596 q 286 444 299 490 q 265 361 274 399 q 254 289 257 324 q 257 243 251 260 q 289 214 267 218 q 318 218 301 211 q 403 290 363 235 q 413 305 407 297 q 422 319 418 313 q 432 334 426 325 q 442 349 438 343 q 438 372 438 368 q 431 418 435 397 q 422 462 428 439 q 414 497 417 485 q 401 540 411 508 q 388 585 392 571 q 399 696 364 667 q 435 714 410 706 q 610 742 519 743 q 697 718 669 742 q 722 691 717 703 q 718 654 726 679 z "},"ý":{"ha":750,"x_min":11,"x_max":732,"o":"m 718 654 q 699 507 700 589 q 708 358 699 425 q 724 206 718 292 q 725 57 731 121 q 685 -119 718 -35 q 629 -210 661 -182 q 499 -260 588 -246 q 358 -276 446 -269 q 240 -282 299 -283 q 125 -265 182 -281 q 81 -233 94 -256 q 72 -180 68 -211 q 88 -118 76 -149 q 118 -54 100 -87 q 174 20 149 -1 q 235 25 199 42 q 369 -24 299 -4 q 432 -19 407 -35 q 461 28 457 -3 q 464 178 469 93 q 350 99 406 131 q 239 53 294 68 q 140 51 183 39 q 65 101 97 63 q 23 217 33 140 q 22 407 13 293 q 29 470 25 431 q 35 532 33 510 q 40 587 38 554 q 42 651 42 619 q 51 681 38 669 q 86 690 63 689 q 243 663 167 693 q 290 632 276 649 q 304 515 321 596 q 286 444 299 490 q 265 361 274 399 q 254 289 257 324 q 257 243 251 260 q 289 214 267 218 q 318 218 301 211 q 403 290 363 235 q 413 305 407 297 q 422 319 418 313 q 432 334 426 325 q 442 349 438 343 q 438 372 438 368 q 431 418 435 397 q 422 462 428 439 q 414 497 417 485 q 401 540 411 508 q 388 585 392 571 q 399 696 364 667 q 435 714 410 706 q 610 742 519 743 q 697 718 669 742 q 722 691 717 703 q 718 654 726 679 z "},"ÿ":{"ha":750,"x_min":11,"x_max":732,"o":"m 718 654 q 699 507 700 589 q 708 358 699 425 q 724 206 718 292 q 725 57 731 121 q 685 -119 718 -35 q 629 -210 661 -182 q 499 -260 588 -246 q 358 -276 446 -269 q 240 -282 299 -283 q 125 -265 182 -281 q 81 -233 94 -256 q 72 -180 68 -211 q 88 -118 76 -149 q 118 -54 100 -87 q 174 20 149 -1 q 235 25 199 42 q 369 -24 299 -4 q 432 -19 407 -35 q 461 28 457 -3 q 464 178 469 93 q 350 99 406 131 q 239 53 294 68 q 140 51 183 39 q 65 101 97 63 q 23 217 33 140 q 22 407 13 293 q 29 470 25 431 q 35 532 33 510 q 40 587 38 554 q 42 651 42 619 q 51 681 38 669 q 86 690 63 689 q 243 663 167 693 q 290 632 276 649 q 304 515 321 596 q 286 444 299 490 q 265 361 274 399 q 254 289 257 324 q 257 243 251 260 q 289 214 267 218 q 318 218 301 211 q 403 290 363 235 q 413 305 407 297 q 422 319 418 313 q 432 334 426 325 q 442 349 438 343 q 438 372 438 368 q 431 418 435 397 q 422 462 428 439 q 414 497 417 485 q 401 540 411 508 q 388 585 392 571 q 399 696 364 667 q 435 714 410 706 q 610 742 519 743 q 697 718 669 742 q 722 691 717 703 q 718 654 726 679 z "},"z":{"ha":718,"x_min":8,"x_max":711,"o":"m 707 132 q 693 73 710 100 q 646 50 676 46 q 377 60 604 53 q 50 94 150 68 q 38 100 42 96 q 29 117 33 104 q 10 306 10 210 q 10 313 10 310 q 29 351 10 336 l 386 654 q 269 615 376 653 q 94 571 161 578 q 78 575 86 569 q 67 592 71 581 q 60 618 63 604 q 56 653 57 632 q 53 690 54 674 q 52 731 53 707 q 50 769 51 754 q 49 789 50 783 q 49 805 49 794 q 51 820 49 815 q 56 833 53 825 q 66 846 60 840 q 82 857 72 851 q 127 865 96 864 q 203 864 158 867 q 260 861 249 861 q 390 858 283 861 q 556 856 497 854 q 595 849 578 858 q 625 819 613 840 q 644 783 638 799 q 660 739 651 767 q 671 692 671 704 q 661 663 671 679 l 304 363 q 299 350 296 356 q 310 346 300 344 q 462 366 364 353 q 614 386 560 379 q 684 365 674 393 q 699 297 694 338 q 706 202 704 257 q 707 132 707 147 z "},"{":{"ha":663,"x_min":68,"x_max":617,"o":"m 507 206 q 528 178 515 192 q 553 152 540 165 q 572 131 565 139 q 553 8 615 75 q 365 13 468 -82 q 283 135 318 50 q 235 285 254 201 q 214 439 215 368 q 211 446 214 443 q 203 450 208 449 q 194 451 197 451 q 181 451 190 451 q 171 451 172 451 q 151 451 168 451 q 128 451 135 450 q 107 454 121 451 q 87 462 93 457 q 75 477 81 467 q 69 501 69 488 q 69 513 69 507 q 70 527 69 519 q 71 539 71 535 q 83 592 72 576 q 131 617 99 614 q 185 607 138 617 q 196 606 189 607 q 216 613 207 606 q 226 632 225 619 q 249 750 238 714 q 299 885 281 849 q 349 967 325 935 q 417 1031 372 999 q 478 1048 440 1047 q 540 1026 517 1049 q 589 924 604 963 q 542 874 581 900 q 494 840 503 849 q 433 731 449 793 q 417 574 418 669 q 397 539 417 557 q 360 519 378 521 q 353 518 360 519 q 344 517 344 517 q 421 451 418 501 q 433 363 424 401 q 459 287 442 324 q 507 206 476 250 z "},"|":{"ha":296,"x_min":32,"x_max":261,"o":"m 261 144 q 261 14 261 139 q 250 -13 261 -1 q 224 -25 239 -25 q 181 -24 203 -25 q 78 -25 181 -24 q 55 -16 65 -25 q 42 7 44 -7 q 37 127 36 56 q 46 450 38 199 q 40 819 49 533 q 37 876 39 829 q 35 949 35 924 q 34 972 35 956 q 33 997 33 988 q 35 1017 33 1006 q 43 1036 38 1029 q 52 1044 47 1042 q 64 1049 57 1047 q 76 1051 71 1050 q 89 1051 81 1051 q 100 1051 97 1051 q 219 1056 117 1051 q 245 1045 235 1056 q 256 1019 256 1035 q 258 903 258 913 q 261 790 261 851 q 260 636 261 729 q 260 474 260 543 q 259 351 260 424 q 258 233 258 278 q 261 144 258 188 z "},"}":{"ha":663,"x_min":46,"x_max":593,"o":"m 492 561 q 510 562 493 561 q 534 562 528 563 q 554 558 540 561 q 575 551 568 556 q 588 535 582 546 q 593 511 593 525 q 592 499 593 506 q 592 485 592 493 q 590 474 592 478 q 578 419 589 436 q 532 396 563 399 q 478 406 524 396 q 467 407 474 406 q 447 400 456 407 q 436 381 438 393 q 413 263 425 299 q 363 128 382 164 q 314 46 338 78 q 246 -18 290 14 q 183 -35 221 -35 q 122 -15 146 -36 q 72 89 57 50 q 121 138 82 113 q 168 172 160 164 q 228 281 214 219 q 246 439 243 343 q 265 474 246 456 q 303 493 285 492 q 306 494 303 493 q 314 495 310 494 q 318 496 318 496 q 242 561 244 511 q 228 650 238 611 q 202 726 219 689 q 156 807 185 763 q 134 834 146 821 q 110 860 122 847 q 90 882 97 874 q 108 1004 46 938 q 296 1000 193 1094 q 379 878 344 963 q 413 784 397 835 q 438 677 428 733 q 449 574 447 621 q 451 567 449 569 q 459 563 453 564 q 469 561 465 561 q 481 561 472 561 q 492 561 490 561 z "},"~":{"ha":560,"x_min":19,"x_max":542,"o":"m 539 601 q 533 575 542 592 q 465 481 500 511 q 358 447 414 436 q 308 469 331 453 q 255 524 286 486 q 217 569 224 561 q 179 585 196 592 q 163 567 171 581 q 132 511 136 519 q 111 498 125 500 q 82 503 97 496 q 52 521 67 510 q 29 547 38 532 q 21 576 21 563 q 57 666 24 618 q 129 721 90 714 q 235 682 188 731 q 306 617 278 636 q 344 604 333 599 q 365 624 356 610 q 381 656 375 639 q 403 683 386 674 q 449 685 421 692 q 490 665 471 678 q 522 636 508 653 q 539 601 535 619 z "}," ":{"ha":410,"x_min":0,"x_max":0,"o":""},"­":{"ha":0,"x_min":0,"x_max":0,"o":""},"‘":{"ha":275,"x_min":24,"x_max":265,"o":"m 246 771 q 232 651 264 703 q 139 611 200 600 q 32 715 57 626 q 24 785 24 743 q 32 869 24 826 q 63 946 40 911 q 118 992 85 981 q 153 990 136 997 q 178 968 169 983 q 180 935 186 953 q 157 911 174 918 q 100 842 114 879 q 184 849 139 869 q 246 771 229 828 z "},"’":{"ha":275,"x_min":8,"x_max":253,"o":"m 243 889 q 250 835 249 867 q 247 769 251 804 q 233 701 243 733 q 202 645 222 669 q 156 613 182 621 q 106 622 128 603 q 94 668 85 642 q 118 693 101 685 q 174 761 160 724 q 90 756 136 735 q 29 832 44 776 q 42 952 10 901 q 136 992 75 1003 q 243 889 218 978 z "},"‚":{"ha":275,"x_min":8,"x_max":251,"o":"m 243 175 q 250 105 250 146 q 242 21 250 64 q 211 -57 233 -22 q 156 -101 189 -92 q 106 -92 128 -111 q 94 -46 85 -72 q 118 -21 101 -29 q 174 47 160 10 q 90 42 136 21 q 29 118 44 63 q 42 238 10 188 q 136 278 75 289 q 243 175 218 264 z "},"“":{"ha":528,"x_min":24,"x_max":508,"o":"m 499 771 q 503 706 508 738 q 485 652 499 675 q 446 617 471 629 q 392 611 421 606 q 285 715 310 626 q 276 785 276 743 q 285 869 276 826 q 315 946 293 911 q 371 992 338 981 q 406 990 389 997 q 431 968 422 983 q 433 935 439 953 q 408 911 426 918 q 353 842 367 879 q 436 849 390 869 q 499 771 482 828 m 100 842 q 184 849 139 869 q 246 771 229 828 q 232 651 264 703 q 139 611 200 600 q 32 715 57 626 q 24 785 24 743 q 32 869 24 826 q 63 946 40 911 q 118 992 85 981 q 153 990 136 997 q 178 968 169 983 q 180 935 186 953 q 157 911 174 918 q 100 842 114 879 z "},"”":{"ha":528,"x_min":8,"x_max":504,"o":"m 136 992 q 243 889 218 978 q 250 819 250 860 q 242 735 250 778 q 211 657 233 692 q 156 613 189 622 q 106 622 128 603 q 94 668 85 642 q 118 693 101 685 q 174 761 160 724 q 90 756 136 735 q 29 832 44 776 q 42 952 10 901 q 136 992 75 1003 m 494 889 q 503 819 503 860 q 494 735 503 778 q 464 657 486 692 q 408 613 442 622 q 359 622 381 603 q 347 668 338 642 q 371 693 353 685 q 426 761 413 724 q 343 756 389 735 q 281 832 297 776 q 294 952 263 901 q 388 992 326 1003 q 494 889 469 978 z "},"„":{"ha":528,"x_min":8,"x_max":504,"o":"m 136 278 q 243 175 218 264 q 250 105 250 146 q 242 21 250 64 q 211 -57 233 -22 q 156 -101 189 -92 q 106 -92 128 -111 q 94 -46 85 -72 q 118 -21 101 -29 q 174 47 160 10 q 90 42 136 21 q 29 118 44 63 q 42 238 10 188 q 136 278 75 289 m 494 175 q 503 105 503 146 q 494 21 503 64 q 464 -57 486 -22 q 408 -101 442 -92 q 359 -92 381 -111 q 347 -46 338 -72 q 371 -21 353 -29 q 426 47 413 10 q 343 42 389 21 q 281 118 297 63 q 294 238 263 188 q 388 278 326 289 q 494 175 469 264 z "}}}
